<svg id="圖層_1" data-name="圖層 1" xmlns="http://www.w3.org/2000/svg" viewBox="0 0 1080 1985" xmlns:xlink="http://www.w3.org/1999/xlink" version="1.1">
	<defs><style>.cls-1{fill:#fff8bb;opacity:0.7;}.cls-2,.cls-5,.cls-8{font-size:32px;fill:#004870;font-family:NotoSansCJKtc-Light-B5pc-H, Noto Sans CJK TC;}.cls-2,.cls-5{text-decoration:underline;}.cls-10,.cls-2,.cls-8{letter-spacing:0.01em;}.cls-3{letter-spacing:-0.24em;}.cls-4{letter-spacing:0.01em;}.cls-11,.cls-5{letter-spacing:0.01em;}.cls-12,.cls-6{fill:none;}.cls-6,.cls-7{stroke:#000;stroke-miterlimit:10;}.cls-6{stroke-width:4px;}.cls-15,.cls-7{fill:#fff;}.cls-7{stroke-width:3px;}.cls-9{letter-spacing:-0.24em;}.cls-13{fill:#1b1b1b;}.cls-14{fill:#4d4d4d;}</style></defs><title>eggProductionRisk</title><rect id="bg" class="cls-1" y="96.94" width="1080" height="1887.59"/>

<!--疾管署調查：購買散裝雞蛋，沙門氏菌感染風險比盒裝蛋高-->
	<a xlink:href="https://www.agriharvest.tw/theme_data.php?theme=article&amp;sub_theme=article&amp;id=112" target="_blank">
	<text class="cls-2" transform="translate(44.74 1686.75)">散蛋易沾糞<tspan class="cls-3" x="161.6" y="0">便，</tspan><tspan class="cls-4" x="210.24" y="0">增</tspan><tspan x="0" y="45">感染沙門氏菌風險</tspan></text></a>


<!--【談雞說蛋】之七：雞蛋之營養及新鮮度檢測方法-->
	<a xlink:href="https://www.agriharvest.tw/theme_data.php?theme=article&amp;sub_theme=article&amp;id=620" target="_blank">
	<text class="cls-5" transform="translate(649 1827.77)">注意保存方式及期限</text></a>

	<g id="標"><path d="M84.15,56.73c0,.85-.1,1.7-.2,2.5h8.3v5.15h-8.7a58.19,58.19,0,0,1,9.25,6.05l-4.05,4.35A45.14,45.14,0,0,0,81,69c-1.8,2.45-4.5,4.3-8.85,5.7a15.87,15.87,0,0,0-3.45-5.1c4.35-1.2,6.55-2.9,7.75-5.25h-7V59.23h8.2c0-.6.1-1.2.15-1.9-4.55.5-5.75.75-6.65,1.2-.2-1.1-.85-3.9-1.35-5.45a11.64,11.64,0,0,0,4.1-1.8c.35-.2.85-.45,1.4-.8a9.86,9.86,0,0,0-3.25.5c-.25-1.15-1-3.9-1.45-5.4a7.09,7.09,0,0,0,2.25-1.2,24.16,24.16,0,0,0,5.3-4.75l1.35,1a23.48,23.48,0,0,0-1.5-4.2l3.8-1.55c-2.35.35-4.75.65-7.05.85a21.32,21.32,0,0,1,2,5.05l-5,2.1A23.45,23.45,0,0,0,70,37.53l4.4-1.75c-1.35.1-2.65.2-3.9.25a24.53,24.53,0,0,0-1.25-5.1c7.15-.55,15.15-1.75,20.4-3.5l2.6,5.15a66,66,0,0,1-9.45,2.15,20.62,20.62,0,0,1,1.8,4.5l-4.4,1.85,2.15,1.6a32.47,32.47,0,0,1-3.7,3H82a43.75,43.75,0,0,0,3.9-3.55l4.2,3.25a66.19,66.19,0,0,1-8.9,6.75l4.8-.35c-.3-.6-.6-1.15-.9-1.7l4.85-2a33.92,33.92,0,0,1,3.8,8l-5.15,2.25c-.15-.6-.35-1.3-.6-2.05ZM85.2,40.58A48.47,48.47,0,0,0,88,34l4.7,1.6a64.79,64.79,0,0,1-3.35,6.55Zm31.05,32.1h-15v2H94.85V49.33l-.85,1a41.52,41.52,0,0,0-4.7-5.85c3.75-4,6.65-10.6,8.2-17.3l6.75,1.65a68.72,68.72,0,0,1-2.75,8.4h5.3c-.65-2-1.65-4.6-2.55-6.6l6-1.8a57.86,57.86,0,0,1,3.15,7.65l-2.25.75h4.4v6.45H110.8v3.1H115v6.05H110.8v3.7H115v6.05H110.8v3.55h5.45Zm-11.9-29H101.3v3.1h3.05Zm0,9.15H101.3v3.7h3.05Zm-3.05,13.3h3.05V62.58H101.3Z"/><path d="M163.3,64.38c3.1,2.25,6.3,4.75,8.3,6.45L167,75.33c-.95-.9-2.15-2-3.5-3.1-13.5.65-27.85,1.2-37.75,1.45L125.3,67c4.8.05,11.4.05,18.75.05v-2.7h-14.9V52a29.28,29.28,0,0,1-2.4,1.7,38.07,38.07,0,0,0-3.35-6.9A22.19,22.19,0,0,0,133,35.13l6.65,1.7c-.35,1-.75,1.9-1.15,2.8a10.12,10.12,0,0,0,5.4,2.55v-7.4H127.6V29h36l1.15-.25,5.4,1.3a57,57,0,0,1-4.35,9.4l-4-1v2.8h-10.8v1.5h1.6c3.5,0,14.65,0,19-.2a21.32,21.32,0,0,0-2.3,6.35H152.55c-7.7,0-13-.65-16.7-4.4a30.75,30.75,0,0,1-6.5,7.4h14.7v-2.3h7.2v2.3H165.9V64.38Zm-19.25-5.2V57H136v2.15Zm7-24.4v1.6h9.1c.25-.5.45-1,.7-1.6Zm.2,22.25v2.15h7.3V57Zm5.6,10-1.65-1.2,1.65-1.4h-5.6V67Z"/><path d="M193.8,51.38a64.8,64.8,0,0,1-3.5,12.15c.7.45,1.5,1,2.5,1.55,3.35,2.1,8.2,2.35,14,2.35A157.36,157.36,0,0,0,227.2,66a30,30,0,0,0-2.1,7.4c-4.35.3-12.85.65-18.65.65-6.7,0-10.85-.55-14.45-2.55-2.1-1.2-3.85-2.8-4.85-2.8-1.2,0-3,3.55-4.15,6.25l-4.8-7a21.34,21.34,0,0,1,5.45-4.45,44.75,44.75,0,0,0,2.45-7.7h-6.2c1.1-3,2.3-6.8,3.35-10.65h-4V38.68h12.6c-1,3.5-2.05,7.35-3.1,10.85l.75-.15Zm-9.1-13.45c-.6-2.35-2-6.1-2.85-8.9l6.4-2c1,2.75,2.3,6.2,3,8.5Zm12.45,1.2h-4.4V28.63H225.2v10.5h-5.75v2.15H212.7v1.15h10.1v15H212.7v1.1H225v5.15H212.7v2.9h-7.05v-2.9H193.4V58.53h12.25v-1.1h-10.1v-15h10.1V41.28h-8.5Zm2.2-5.25v2.5h6.3V34.83h7.05v1.55h5.55v-2.5Zm2.35,14.05h4v-1.2h-4Zm4,5.2v-1.2h-4v1.2Zm7.05-6.4v1.2h3.65v-1.2Zm3.65,5.2H212.7v1.2h3.65Z"/><path d="M279.7,67.23c0,3.15-.55,5.05-2.6,6.1s-4.7,1.2-8.35,1.2a25,25,0,0,0-2-6.7,48.65,48.65,0,0,0,5.15.1c.7,0,.95-.2.95-.85V62.33c-3.8,1.05-7.65,2-10.85,2.8l-1.15-3.25c-.25,4.75-1,9.9-3,13.25a30.83,30.83,0,0,0-5.75-4,13,13,0,0,0,.85-1.9c-6.2,1.45-12.65,2.9-17.75,4.05l-1.45-6.55c2.05-.25,4.55-.6,7.4-1V54.38H234.7v-6.1h6.55V45.63H237.8v-.9c-.5.5-1,1-1.55,1.45a43.89,43.89,0,0,0-3-7.55,34.06,34.06,0,0,0,9.05-11.9L248.55,29c-.25.5-.5,1.05-.75,1.6,2.7,2.15,5.85,4.7,7.5,6.35l-4,5.6c-.3-.35-.65-.75-1.05-1.15v4.25h-2.7v2.65h5v6.1h-5V63A57.27,57.27,0,0,0,249,55.33l5.35,1.25c-.95,2.7-1.8,5.6-2.5,7.6l1.05-.15.35,4.85c1.1-3.45,1.15-7.75,1.15-11.5V41h9.25V27.23h7V41h9.15Zm-40.35-11.5a77.89,77.89,0,0,1,1.85,8.2l-4.9,1.4a64.13,64.13,0,0,0-1.55-8.4Zm9.05-16.1c-1.2-1.1-2.5-2.3-3.8-3.45-.75,1.2-1.55,2.35-2.35,3.45Zm-.9,25.2,3.3-.5-3.3-.9Zm9.25-24.3a35.41,35.41,0,0,0-3.9-9.25l5.8-2.75a33.37,33.37,0,0,1,4.35,9Zm4.25,6.7v5.05l2.6-3.75a39.62,39.62,0,0,1,9.3,3.5v-4.8Zm0,11.85c3.25-.65,7.55-1.6,11.9-2.6V52.13l-3.15,4.75a38.9,38.9,0,0,0-8.75-4v6.15Zm20.45-28.6A99.68,99.68,0,0,1,277.1,40l-6.1-2.2a58.88,58.88,0,0,0,3.65-9.6Z"/><path d="M298.35,52.38A39.8,39.8,0,0,0,288.9,47l3.75-5.5a40.34,40.34,0,0,1,9.75,4.85Zm6.1,6.1c-2.65,5.25-5.65,10.65-8.7,15.65l-6.15-4.9a142.25,142.25,0,0,0,9.5-15.6Zm-4.35-19.8a38.42,38.42,0,0,0-9.25-5.6l4-5.35c3.15,1.15,7.45,3.25,9.55,5.05Zm7.8,13h6.5v4.7c0,5.6-.85,13-7.6,18.1a24.38,24.38,0,0,0-5.1-4.75c5.55-4.05,6.2-9.45,6.2-13.6ZM333.05,68a8.73,8.73,0,0,0,2.55-.35c.1,1.7.25,4,.5,5.5a8.09,8.09,0,0,1-3,.4H331c-5.55,0-6.6-2.4-6.6-7.9V51.73h6.25c-.45-.75-1-1.65-1.65-2.6-17.8,1.25-20.65,1.5-22.7,2.3a62.27,62.27,0,0,0-2.3-6.6c1.4-.35,2.45-1.35,4-3.1a21.62,21.62,0,0,0,1.9-2.35h-5.5V32.93h9.7c1.1-1.95,2.2-4.05,3.15-6.15l7.1,2.7c-.65,1.15-1.3,2.3-2,3.45h13.15v6.45h-5.7c2.45,3,5.45,6.65,7.05,9L331.05,52v13.7c0,1.65,0,2.25.65,2.25ZM324.9,43.43l-1.7-2.25,3.05-1.8H317.9c-1.25,1.6-2.5,3.15-3.75,4.6Zm-8.75,8.8h6.3V72.48h-6.3Z"/><path d="M359.8,62.28c-.6-1.55-1.55-3.75-2.6-5.8v18.2h-6.85V58.48a42.28,42.28,0,0,1-4,8.9,46.49,46.49,0,0,0-3.1-7.25A48.7,48.7,0,0,0,348.7,48h-4.8V41.23h6.45v-4.8q-2.1.38-4.05.6a23.73,23.73,0,0,0-1.85-5.6,66.42,66.42,0,0,0,14.7-4.15l3.75,6A54.71,54.71,0,0,1,357.2,35v6.25h5.15V48H357.2v.55c1.25,1.35,5.5,6.6,6.4,7.9Zm31,5.15v6.4H361.7v-6.4h11.6V64.08h-9.25V57.93h9.25v-3c-2.6.2-5.15.35-7.55.4a21.88,21.88,0,0,0-1.7-5.5,127.24,127.24,0,0,0,20.8-2.6l4.35,5.45a81.18,81.18,0,0,1-8.65,1.55v3.75h8.3v6.15h-8.3v3.35Zm-2.1-20.25H364.2v-18h24.45Zm-7.05-12H370.9v5.9h10.7Z"/><path d="M443.65,35.73v26H436V59.38h-9.65v15.3h-7.7V59.38h-9.6V62h-7.3V35.73h16.9V27.18h7.7v8.55Zm-25,16.5V42.88h-9.6v9.35Zm17.35,0V42.88h-9.65v9.35Z"/><path d="M465.15,52.63a5.06,5.06,0,0,1-5.35-5c0-3.05,2.5-5,5.55-5,4,0,6.05,2.9,6.05,7.5,0,5.8-3.85,10.7-10.6,12.55L459,57.88c3.85-1,6.15-3.1,6.55-5.25Z"/><path d="M503.35,39.78c-.5,1-1,2-1.5,2.9H524.7v24.5c0,3.35-.6,5.3-2.85,6.4s-5.1,1.2-9.05,1.2a25.71,25.71,0,0,0-2.15-7c2.15.15,5.05.15,5.85.15s1.1-.25,1.1-.9v-1.8H500.2a17.38,17.38,0,0,1-5.8,9.9,27.93,27.93,0,0,0-5.25-5.6c4.4-3.6,4.7-8.85,4.7-13.55v-2.3A38.84,38.84,0,0,1,488.7,58a43.25,43.25,0,0,0-4.85-5.65,35.52,35.52,0,0,0,11.25-12.6h-10V33h13.15a56.22,56.22,0,0,0,1.85-5.85l7.55,1.7c-.45,1.4-.9,2.75-1.4,4.15h23.9v6.8ZM517.6,59.23V57.08H501.2c0,.7,0,1.4-.1,2.15Zm0-10.2H501.2v2.05h16.4Z"/><path d="M586.35,38.13H583.7v28.4c0,3.9-.75,5.8-3.1,7s-5.8,1.35-10.3,1.3a28.07,28.07,0,0,0-2.4-7.35c2.85.15,6.2.15,7.2.15s1.3-.25,1.3-1.15V38.13H555.5v-6.9c-.9,2.25-2,4.55-3.15,6.75V74.53H545.1V49.28a37.79,37.79,0,0,1-2.9,3.3,49,49,0,0,0-3.75-7.65A50.37,50.37,0,0,0,549.5,27l6.8,2.2-.75,2h30.8Zm-24,23.2v3.15h-6.8V42.63h17.3v18.7Zm0-12.5v6.3h3.8v-6.3Z"/><path d="M625.1,41.73c0,1.7-.1,3.4-.2,5h13.3s0,2,0,2.9c-.45,14.2-.9,20.1-2.4,22.1a6.07,6.07,0,0,1-4.3,2.55,29.35,29.35,0,0,1-6.3.3,17.37,17.37,0,0,0-2.15-7.2c1.9.2,3.65.25,4.65.25a2,2,0,0,0,1.7-.75c.75-.95,1.15-4.65,1.45-13.6h-6.5c-1.25,9.2-4.45,16.45-13.25,21.25a19.9,19.9,0,0,0-4.6-5.65c10.6-5.5,11.25-14.45,11.5-27.15h-5.5V36c-1,3.55-2.1,7.25-3.05,10.05a15.44,15.44,0,0,1,3.3,10c0,3.65-.75,5.75-2.5,7a6.87,6.87,0,0,1-3.05,1.2,22.2,22.2,0,0,1-3.3.15,16.72,16.72,0,0,0-1.15-5.6v16H596V29.33h11.7l1-.25,5,2.8-.85,3.1h11a66,66,0,0,0-1.8-6.6l6.65-1.7A68.28,68.28,0,0,1,631,33.73L626.55,35h14.3v6.75ZM602.7,57.88c.55,0,1,0,1.35,0a2.15,2.15,0,0,0,1.35-.4c.5-.4.75-1.2.75-2.55a13.06,13.06,0,0,0-3-8.2c.8-3,1.75-7.45,2.45-11h-2.9Z"/><path d="M663.2,47.53c0,.75,0,1.55,0,2.35,4.45-1.45,4.9-3.2,4.9-5.4V40.13h20.1v5.65c0,1.15.1,1.7.8,1.7h2.2a10.24,10.24,0,0,0,3-.45c.1,1.9.3,4.65.5,6.4a10.19,10.19,0,0,1-3.4.45h-2.9c-5.85,0-7.2-2.2-7.3-7.65h-6.45a9.86,9.86,0,0,1-5.5,8.35h17.5l1.2-.2,4.35,1.8a25.37,25.37,0,0,1-7.5,11,65.5,65.5,0,0,0,10.85,1.25,25.08,25.08,0,0,0-4,6.35,46.8,46.8,0,0,1-14.3-3.25,55.24,55.24,0,0,1-12.9,3.35,25.6,25.6,0,0,0-3-6.1,54.71,54.71,0,0,0,9.25-1.6,25.44,25.44,0,0,1-4.7-6l2.4-.6h-3.6v-6h.85a36.37,36.37,0,0,0-2.5-3.15c-.3,7.85-1.75,17.5-6.9,23.55a29,29,0,0,0-6.05-4.2,24.89,24.89,0,0,0,5.2-12.25c-1.65,1.05-3.3,2.05-4.9,3l-2-6.75c2-.85,4.7-2.2,7.6-3.65.05-1.25.05-2.5.05-3.65v-1.3l-4,1.8a68.22,68.22,0,0,0-3.9-9.35L654,36.18c.65,1.25,1.4,2.65,2.1,4.05V32h17.2c-.45-1.2-.95-2.4-1.4-3.45l7.25-1.75c.8,1.6,1.7,3.6,2.3,5.2H696.2v6.6h-33Zm9.65,13.05a15.31,15.31,0,0,0,4.5,3.85,18.79,18.79,0,0,0,4.9-3.85Z"/><path d="M749.15,45A41.29,41.29,0,0,1,740,63.33,38.31,38.31,0,0,0,751.55,68a31.73,31.73,0,0,0-5.05,7,36.94,36.94,0,0,1-12.45-6.3,50.21,50.21,0,0,1-14.35,6.85,29,29,0,0,0-4.3-6.8,39.31,39.31,0,0,0,13-5.65A48.9,48.9,0,0,1,721.25,50h-.15c-1.2,8.25-4.35,17.45-12.25,24.1a29.87,29.87,0,0,0-5.3-6.4C713,60,714.2,47.28,714.2,39.58v-3.4h-7.5v-7.1h32.35c-.8,4.65-1.7,9.85-2.6,14.05h6l1.4-.3ZM721.8,36.18v3.5c0,1.1,0,2.25,0,3.45h6.5c.55-2.15,1.15-4.55,1.65-7ZM728.4,50a31.14,31.14,0,0,0,5.5,8.3,29.07,29.07,0,0,0,5.3-8.3Z"/><path d="M772.35,42.28c-.6,1.2-1.3,2.45-2,3.65v28.8H763.8V55.38c-.7.8-1.35,1.55-2,2.25a45.16,45.16,0,0,0-3.75-6.7,43.34,43.34,0,0,0,9.1-13l5.25,1.9v-2.7h4.35l.35-1.8h-3.5v-5h4.25c.15-1.1.3-2.2.4-3.25l6.1.45-.4,2.8H791v6.75h2.3v5.45h-21Zm.6-12.7a53.78,53.78,0,0,1-11.15,12.5,44,44,0,0,0-3.55-5.6,33.51,33.51,0,0,0,8.2-9.35Zm33.45,20.2h-3V67.23c0,3.05-.35,5-2.2,6.1s-4,1.25-7,1.25a32,32,0,0,0-1.1-5.05h-5v5.15h-6.4V69.53h-9.35c.4-2.05.85-5.1,1.15-7.7h-1.55V56.78h9.75v-2h-8.2V44H792V54.78H788.2v2H793v5.05H788.2v2.6h5.55v3.35H796c.55,0,.7-.15.7-.65V49.78h-3.85V43.23H806.4Zm-27.65.45h7.55v-1.7h-7.55Zm3,14.2v-2.6h-2.55c-.1.85-.2,1.7-.3,2.6Zm1.05-27.25h2.35v-1.8h-2Zm22.75-.85h-12V29.88h12Z"/><path d="M860.5,66.23v7.1H815v-7.1h18.9v-8.6H821v-7h13V43h-9.6a44.47,44.47,0,0,1-4.35,6.8,48.25,48.25,0,0,0-6.55-4.4c3.85-4.1,7.05-11,8.75-17.7l7.55,1.7a62.14,62.14,0,0,1-2.2,6.5h6.4v-8.7h7.6v8.7h16.35V43H841.5v7.65h14.35v7H841.5v8.6Z"/><path d="M911.1,28.83c-.4,20.3-.5,37.9,1.4,37.9.35,0,.65-2.9.75-6.7a36.09,36.09,0,0,0,3.9,6c-.65,5.75-2,8.75-5.4,8.75-7.85,0-8-18-7.85-39.2H880.7V47c0,8.45-.85,20.6-6.3,27.85a28.42,28.42,0,0,0-6-3.9c5-6.55,5.35-16.45,5.35-24V28.83Zm-9,31.55a47.1,47.1,0,0,1,3.7,10.7L900,73a23,23,0,0,0-.65-3.1c-6.7.65-13.65,1.2-19,1.65l-.45-6.45c2.55-.1,5.65-.3,9.05-.5v-4.2H881.7V45.28H889v-2.5H881.8v-5.7h20.75v5.7H895.2v2.5h7.7v15.1ZM889,55V50.73h-1.8V55Zm6.25-4.25V55h1.9V50.73ZM897.45,64c-.35-.85-.7-1.7-1-2.5l3.85-1.15H895.2v3.8Z"/><path d="M947.2,40.73a43.18,43.18,0,0,1-4.75,2.9,43,43,0,0,0-3.45-4c-.45,1.85-1,3.65-1.35,5.2a19.67,19.67,0,0,1,2.5,10.1c0,3.6-.6,5.8-2.1,7.05a5.94,5.94,0,0,1-2.75,1.2,15.76,15.76,0,0,1-2.8.15,17.89,17.89,0,0,0-1-5.3v16.5h-6V29.13h10l1-.25,4.5,2.55c-.45,2-1,4.1-1.45,6.2a36.25,36.25,0,0,0,12.4-11.25l7,2.5c-.3.45-.6,1-.9,1.4a42.49,42.49,0,0,0,13.55,7,30.65,30.65,0,0,0-2.7,7,51.45,51.45,0,0,1-7-3.65v3.1H947.2ZM931.5,57.18h1a1.28,1.28,0,0,0,1-.4c.4-.4.6-1.3.6-2.75A16.73,16.73,0,0,0,932,45.48c.6-2.75,1.25-6.7,1.75-9.9h-2.3ZM951,60.08c-.3.9-.6,1.75-1,2.55a30.92,30.92,0,0,1,4.3,3.2l-3.6,4.75a22.54,22.54,0,0,0-3.3-3,25.37,25.37,0,0,1-7,7.25,36.35,36.35,0,0,0-4.6-4.6,19.41,19.41,0,0,0,8.85-11.5Zm-10-14.5H953.6v13H941Zm5.1,8.25h2.15v-3.5h-2.15Zm12.3-15.5c-1.5-1.1-3-2.2-4.25-3.35a39.26,39.26,0,0,1-3.7,3.35Zm6.6,21.3a32.58,32.58,0,0,1-1,4,65,65,0,0,1,7.35,5.55L967,74a50.79,50.79,0,0,0-5.6-4.85,19.74,19.74,0,0,1-5.25,5.7,30.4,30.4,0,0,0-4.55-4.6c3.85-2.45,6.15-6.6,7-11.55ZM955.4,45.58h13v13h-13Zm5.15,8.25h2.3v-3.5h-2.3Z"/><path d="M999.55,43.13c0-2.75-2.35-4-5.65-4a9.22,9.22,0,0,0-7.15,3.6l-4.9-4.5a16.91,16.91,0,0,1,13.1-6.3c7.35,0,13.1,3.25,13.1,10.4s-10.35,7.7-9.9,14.3h-7.8C989.55,49,999.55,47.53,999.55,43.13Zm-5.3,16.4c3.45,0,5.9,2.25,5.9,5.45s-2.45,5.55-5.9,5.55-5.9-2.35-5.9-5.55S990.8,59.53,994.25,59.53Z"/><rect class="cls-6" x="2.22" y="3.32" width="1075.55" height="94"/></g><g id="節點"><rect class="cls-7" x="445.6" y="217.86" width="188.81" height="93" rx="12" ry="12"/><rect class="cls-7" x="236.19" y="572.04" width="188.81" height="93" rx="12" ry="12"/><rect class="cls-7" x="445.6" y="927.86" width="188.81" height="93" rx="12" ry="12"/><rect class="cls-7" x="445.9" y="1770.3" width="188.81" height="93" rx="12" ry="12"/><rect class="cls-7" x="655" y="572.04" width="188.81" height="93" rx="12" ry="12"/><rect class="cls-7" x="236.19" y="1283.75" width="188.81" height="223.74" rx="12" ry="12"/><rect class="cls-7" x="655" y="1283.67" width="188.81" height="223.74" rx="12" ry="12"/><path d="M491.4,252.55a22.29,22.29,0,0,1-1,2.44,8.35,8.35,0,0,0,5.16,2.64v-6.8H482.12V247h29.16l.76-.16,3.52.88a45,45,0,0,1-3.36,7.2l-3-.76v1.92h-8.88v2c.8,0,1.6,0,2.48,0,2.32,0,11.08,0,14-.12a12,12,0,0,0-1.56,4.2H502.72c-6.6,0-11-.64-14-4a24.56,24.56,0,0,1-7.44,7.6,28.28,28.28,0,0,0-2.24-4.56,17.78,17.78,0,0,0,8-9.8Zm17.72,21.92c2.76,2,5.8,4.36,7.6,5.84l-3,3c-.84-.76-1.92-1.68-3.08-2.64-10.72.52-22.12,1-29.83,1.2l-.28-4.4c3.88,0,9.24,0,15.2-.08v-2.92h-12V265h12v-2.08h4.68V265h12v9.48ZM495.68,271v-2.52h-7.52V271Zm4.6-20.16v2h8.28c.28-.64.6-1.32.88-2Zm.08,17.64V271h7.12v-2.52Zm5.88,8.76c-.68-.52-1.36-1-2-1.48l1.48-1.28h-5.36v2.84Z"/><path d="M544.12,247.31c-.2.2-.44.44-.68.64a54,54,0,0,0,15,5,20.36,20.36,0,0,0-1.44,4,64.43,64.43,0,0,1-16.4-6.84,47,47,0,0,1-9.4,4.76h6.6c-.28-.68-.56-1.4-.88-2l4.32-1.16a17.27,17.27,0,0,1,1.48,3.16H550v3.16h-5.68l2.48,1a17,17,0,0,1-3.08,2.24c1.28.56,2.44,1.08,3.36,1.56l-2,2h2.84v-6.12h4.4v9.28H541.64l-.68,1.76h14.2v8.72c0,2-.36,3-1.76,3.6s-3.16.68-5.52.68a15,15,0,0,0-1-2.6l-1,.48c-.28-.56-.64-1.2-1-1.92-4.72.6-9.48,1.2-13.16,1.64l-.92-3.56c.84-.08,1.84-.16,2.92-.24a31,31,0,0,0,1.32-3.08h-5.52v9.28h-4.6v-9.28H523v-3.72h1.8v-1.32h4.6v1.32h7l.64-1.76h-9.48v-9.28h4.2v6.12h2.24a14,14,0,0,0-2-1.84,44.9,44.9,0,0,0,4.52-1.32c-1.28-.48-2.56-.88-3.72-1.2l2.44-2.08c1.64.44,3.4,1,5.16,1.64a17,17,0,0,0,3.08-1.92H530v-2.76c-1.88.72-3.84,1.28-5.72,1.84a24.13,24.13,0,0,0-2.64-3.48c7.28-1.84,14.44-4.84,18.2-8.4Zm-.2,17.48c-1-.56-2.24-1.16-3.64-1.76-1.44.68-2.88,1.24-4.32,1.76Zm-4.44,8.64c-.4,1-.76,1.84-1.08,2.68l4.52-.44c-.36-.48-.64-1-1-1.44l1.88-.8Zm10.92,0h-4.72a54.94,54.94,0,0,1,3.68,5.52h.36c.52,0,.68-.12.68-.56Z"/><path d="M584.76,265.47c-.32.64-.72,1.28-1.12,1.92h16.24s0,1.08-.08,1.64c-.56,7.8-1.2,11-2.28,12.16a3.73,3.73,0,0,1-2.64,1.36,25.1,25.1,0,0,1-4,.08,9.48,9.48,0,0,0-1.08-3.72c1.28.12,2.32.12,2.84.12a1.37,1.37,0,0,0,1.2-.44c.56-.6,1-2.64,1.48-7.48h-1.56c-1.64,4.48-4.76,9.32-8,11.84a13.1,13.1,0,0,0-3.36-2.64c3-1.92,5.72-5.48,7.44-9.2h-2.36a30.51,30.51,0,0,1-9.36,10,14.07,14.07,0,0,0-3.12-2.8,24.12,24.12,0,0,0,8.16-7.24h-2.4a24.85,24.85,0,0,1-4.64,3.92,16.45,16.45,0,0,0-3.12-2.8c-2.88,1.44-5.76,2.88-8.2,4.08l-1.76-4.8c1.36-.52,3-1.2,4.92-2V258.27h-4v-4.48h4v-7.88h4.4v7.88h3.76v4.48h-3.76v9.44l3.2-1.4.84,3.4a19.49,19.49,0,0,0,3.68-4.24h-4.52v-4h25.16v4Zm13.2-5.52H579V246.43H598Zm-4.4-10.24H583.24v1.92h10.32Zm0,5H583.24v1.92h10.32Z"/><path d="M275,611.58c-.72.64-1.44,1.24-2.16,1.84a13.83,13.83,0,0,0-3.36-3.12A31.76,31.76,0,0,0,279,599.58l4.84.92q-.9,1.5-1.92,3h6.16a27.15,27.15,0,0,0-1.24-2.88l4.48-1.24a27.5,27.5,0,0,1,1.92,4.12h11.36v3.64h-12.2v1.68h10.4v3.08h-10.4v1.6h10.44v3.08H292.39v1.76h13.16v3.6h-25.8V623H275Zm9.8,19a32.57,32.57,0,0,1-11.92,5.36,21.46,21.46,0,0,0-3-3.64c4.08-.56,8.84-1.88,11.32-3.36Zm6-2.4v8.76h-4.72v-8.76H270.63v-3.8h15.52v-2h4.72v2h15.68v3.8Zm-3-21h-8.08v1.68h8.08Zm0,4.76h-8.08v1.6h8.08Zm0,4.68h-8.08v1.76h8.08Zm7.24,12c3.52,1.16,8.8,3,11.56,4.32L303.71,636c-2.56-1.24-7.72-3.32-11.4-4.68Z"/><path d="M319.15,608.38a38.27,38.27,0,0,1-3.92,2.4,27.34,27.34,0,0,0-3.36-3.44c4.28-1.84,8.76-4.84,11.32-8l4.28,1.6a28.8,28.8,0,0,1-3.76,3.92V613h-4.56Zm19.48,21.88c3.56,1.32,7.32,2.88,9.64,4l-4.08,2.56a84.08,84.08,0,0,0-10.4-4.68l2.36-1.92H325l3.52,1.6a52.84,52.84,0,0,1-12.52,5.2,32.05,32.05,0,0,0-3.52-3.48,45.62,45.62,0,0,0,10.92-3.32h-5.88V614h26.76v16.24Zm-16.52-11.68h17.32v-1.72H322.11Zm0,4.4h17.32v-1.72H322.11Zm0,4.48h17.32v-1.8H322.11ZM335.83,613c-4.84,0-6.12-1.72-6.12-5.72v-7.52h4.8v2.72h11.92v3.8H334.51v1.08c0,1.24.28,1.8,1.72,1.8h7a30.78,30.78,0,0,0,4.6-.36c.12,1.28.24,2.76.44,3.84a21.5,21.5,0,0,1-4.68.36Z"/><path d="M375.35,619.66c-.32.64-.72,1.28-1.12,1.92h16.24s0,1.08-.08,1.64c-.56,7.8-1.2,11-2.28,12.16a3.72,3.72,0,0,1-2.64,1.36,25,25,0,0,1-4,.08,9.48,9.48,0,0,0-1.08-3.72c1.28.12,2.32.12,2.84.12a1.37,1.37,0,0,0,1.2-.44c.56-.6,1-2.64,1.48-7.48h-1.56c-1.64,4.48-4.76,9.32-8,11.84a13.06,13.06,0,0,0-3.36-2.64c3-1.92,5.72-5.48,7.44-9.2H378a30.51,30.51,0,0,1-9.36,10,14.08,14.08,0,0,0-3.12-2.8,24.11,24.11,0,0,0,8.16-7.24h-2.4a24.91,24.91,0,0,1-4.64,3.92,16.45,16.45,0,0,0-3.12-2.8c-2.88,1.44-5.76,2.88-8.2,4.08l-1.76-4.8c1.36-.52,3-1.2,4.92-2V612.46h-4V608h4V600.1h4.4V608h3.76v4.48h-3.76v9.44l3.2-1.4.84,3.4a19.48,19.48,0,0,0,3.68-4.24h-4.52v-4h25.16v4Zm13.2-5.52H369.63V600.62h18.92Zm-4.4-10.24H373.83v1.92h10.32Zm0,5H373.83v1.92h10.32Z"/><path d="M695.76,618.66a34.21,34.21,0,0,0-7.12-4.64l2.6-3.44a33.85,33.85,0,0,1,7.28,4.24Zm3.88,5.08c-1.72,4.24-3.76,8.88-5.76,12.88l-4.2-2.88A116.5,116.5,0,0,0,696.12,621Zm-2.44-15.56a28.89,28.89,0,0,0-6.72-4.88l2.8-3.32a34.13,34.13,0,0,1,7,4.56Zm24.44,24.12c.8,0,.92-.8,1-5.64a13,13,0,0,0,4.08,1.84c-.36,6.24-1.48,8-4.64,8H719c-3.76,0-4.6-1.4-4.6-5.6V620.38H711c-.6,7.48-2.2,13.24-10.2,16.56a12.93,12.93,0,0,0-2.84-3.84c6.8-2.52,7.8-6.88,8.28-12.72h-6v-4.52H711v-5.68h-4.52a25.12,25.12,0,0,1-2.92,5.68,26.91,26.91,0,0,0-4.12-2.68c2.4-3,4-8,4.84-13L709,601a44.18,44.18,0,0,1-1.08,4.68h3v-6.08h4.72v6.08h8.68v4.48h-8.68v5.68h10.4v4.52h-7v10.48c0,1.28.12,1.44.8,1.44Z"/><path d="M741.44,618.74a35.91,35.91,0,0,1-2.88,9.76c.72.44,1.56,1.08,2.76,1.8,2.76,1.64,6.52,1.88,11.16,1.88a135,135,0,0,0,16.16-1,20.26,20.26,0,0,0-1.36,4.88c-3.28.2-10.36.48-15,.48-5.28,0-8.64-.44-11.56-2.12-1.64-.92-3.08-2.24-3.92-2.24s-2.32,2.72-3.32,5l-3.16-4.52a22.21,22.21,0,0,1,2.88-2.92,22.46,22.46,0,0,0,3.4-7.84h-4.84c.88-2.36,1.88-5.56,2.8-8.68H731v-4.24h9.24c-.8,2.8-1.76,6-2.68,8.8H738l.68-.12Zm-6-10.88c-.52-1.84-1.56-4.76-2.28-7l4.32-1.16c.76,2.16,1.8,4.92,2.4,6.72Zm18.12,1.6a15.67,15.67,0,0,0-.76,3.32c-8,1.24-9.28,1.52-10,1.92a12,12,0,0,0-1.56-3.52,2.58,2.58,0,0,0,1.32-2.6v-7.64H753.8v7.6h-7.6v1.92Zm13.88,16.16h-7.6a53.33,53.33,0,0,1,6.52,3.76l-4.24,2a36.05,36.05,0,0,0-6.44-4.16l2.36-1.56H750.2l3.08,1.08a30.23,30.23,0,0,1-7.88,4.84,28,28,0,0,0-3.56-2.88,25.73,25.73,0,0,0,6.76-3h-7.12v-3.48h6.24V619.7h-4.84v-3.48h4.84V614.1H752v2.12h4.48V614.1H761v2.12h4.92v3.48H761v2.44h6.48ZM746.2,603.86v1.8h3.64v-1.8ZM752,622.14h4.48V619.7H752Zm7.6-8.6c-3.64,0-4.48-1.36-4.48-4.8V601h11.4v7.6h-7.68v.24c0,1.08.16,1.48,1,1.48H764a11.86,11.86,0,0,0,2.72-.24c.08,1,.2,2.32.32,3.2a11.79,11.79,0,0,1-2.92.28Zm-.76-9.64v1.8h3.68v-1.8Z"/><path d="M794.16,619.66c-.32.64-.72,1.28-1.12,1.92h16.24s0,1.08-.08,1.64c-.56,7.8-1.2,11-2.28,12.16a3.72,3.72,0,0,1-2.64,1.36,25,25,0,0,1-4,.08,9.48,9.48,0,0,0-1.08-3.72c1.28.12,2.32.12,2.84.12a1.37,1.37,0,0,0,1.2-.44c.56-.6,1-2.64,1.48-7.48h-1.56c-1.64,4.48-4.76,9.32-8,11.84a13.06,13.06,0,0,0-3.36-2.64c3-1.92,5.72-5.48,7.44-9.2h-2.36a30.51,30.51,0,0,1-9.36,10,14.08,14.08,0,0,0-3.12-2.8,24.11,24.11,0,0,0,8.16-7.24h-2.4a24.91,24.91,0,0,1-4.64,3.92,16.45,16.45,0,0,0-3.12-2.8c-2.88,1.44-5.76,2.88-8.2,4.08l-1.76-4.8c1.36-.52,3-1.2,4.92-2V612.46h-4V608h4V600.1h4.4V608h3.76v4.48h-3.76v9.44l3.2-1.4.84,3.4a19.48,19.48,0,0,0,3.68-4.24h-4.52v-4h25.16v4Zm13.2-5.52H788.44V600.62h18.92ZM803,603.9H792.64v1.92H803Zm0,5H792.64v1.92H803Z"/><path d="M514.47,962.35v20h-5v-2h-9v12.48h-5V980.31h-9v2.2h-4.8V962.35h13.8v-6.92h5v6.92ZM495.4,975.63V967h-9v8.6Zm14.08,0V967h-9v8.6Z"/><path d="M555.91,967.71a15,15,0,0,1-4.6,6.28,32.73,32.73,0,0,0,7.76,1.64,14.08,14.08,0,0,0-2.56,3.6,29.43,29.43,0,0,1-9.12-2.8,34.54,34.54,0,0,1-8,2.4,10.05,10.05,0,0,0-1-1.88,2.09,2.09,0,0,1-1.08,1.12c-1,.6-2.56.64-4.64.64a12.9,12.9,0,0,0-1-3.56c1.2,0,2.36,0,2.76,0s.48-.16.48-.56v-5.08l-6.84.4c-.44,3.52-1.52,7.24-4.08,10a13.71,13.71,0,0,0-3-2.52,13.19,13.19,0,0,0,3.28-7.2l-2.68.16-.24-3.28,3.2-.08v-8.64h4.6a21.28,21.28,0,0,0,.88-2.92l4.12.52q-.6,1.26-1.08,2.4h5.64v5.88c3-1.4,3.44-3.08,3.44-4.8v-2.6h11.2v4.36c0,.88.08,1.2.68,1.2h2.12a10,10,0,0,0,2.2-.2c0,1,.16,2.28.28,3.24a8.11,8.11,0,0,1-2.36.28h-2.68c-3.4,0-4.08-1.36-4.08-4.56v-1H545.8a8,8,0,0,1-3.72,6.56h10.72l.72-.12Zm-2.2,20.24h4.52v3.68H521.76v-3.68h4.44v-8.52h27.51Zm-18.88-21.36v-5.08h-6.6v5.32Zm-3.64,8.68a11,11,0,0,0-2.68-3.32l2.24-1.56a10.9,10.9,0,0,1,2.84,3.2Zm.2-13.24a10.18,10.18,0,0,1,2.4,3l-2.44,1.4a12.74,12.74,0,0,0-2.28-3.16Zm-.76,25.92h3.2V983h-3.2ZM538.2,983v4.92h3.24V983Zm.48-7.84a31.45,31.45,0,0,0,5.16-1.28,15.82,15.82,0,0,1-2.88-3.24l2.8-.8h-3.52v-3.2h.24a14.75,14.75,0,0,0-1.8-2v1.76l.84,0-.08,2.84-.76,0v5.92Zm6.2-5.32a10.17,10.17,0,0,0,2.72,2.28,11.28,11.28,0,0,0,2.68-2.28Zm.88,13.16v4.92H549V983Z"/><path d="M599.83,963.27H588.12l3.76.76c-.8,1.44-1.68,2.84-2.48,4.08H598v20.24c0,2.12-.52,3-2,3.6s-3.6.6-6.8.6a12.62,12.62,0,0,0-1.28-3.48c1.92.08,4.2.08,4.8,0s.88-.2.88-.8V971.95h-6.2v1c0,.76.08,1.12.76,1.12h2a10.84,10.84,0,0,0,2.32-.24,28.06,28.06,0,0,0,.28,3.16,9.16,9.16,0,0,1-2.52.28H587c-3.24,0-3.8-1.52-3.8-4.36v-1h-2.84c-.48,3-1.72,4.88-5.2,6.16h14.48v9.76H578.08v1.64h-4v-11c-.48.12-1,.24-1.52.36a8.82,8.82,0,0,0-1.88-3v16.8h-4.56V968.11h8.24a39,39,0,0,0-1.84-4l2.64-.84H564.28v-4H580a29.45,29.45,0,0,0-.92-3l4.6-1.16c.48,1.28,1,2.84,1.4,4.16h14.72Zm-29.12,12.32c3.72-.64,5-1.72,5.48-3.64h-5.48ZM585,968.11a29.49,29.49,0,0,0,2.08-4.84H577c.72,1.32,1.56,2.88,2,3.92l-2.56.92Zm-6.88,13.28v3.2h7.76v-3.2Z"/><path d="M486.52,1817.15c-1.64-1.16-5.08-3-7.48-4.32l2.6-3.52c2.2,1.08,5.76,2.8,7.52,3.88Zm5,5c-2.12,4.16-4.64,8.72-7,12.6l-4-3.2a106.51,106.51,0,0,0,7.56-12.6Zm-3-15.64a74.38,74.38,0,0,0-7.16-4.68l2.8-3.36c2.2,1.2,5.56,3.08,7.24,4.24Zm26.16,23.56c0,2.32-.4,3.52-1.92,4.28s-3.64.8-6.64.8a15.82,15.82,0,0,0-1.44-4.48c1.84.12,3.92.12,4.56.08s.8-.2.8-.72v-5.48c-4,1.08-8.16,2.12-11.48,3l-1.4-3.92c3.32-.64,8.16-1.72,12.88-2.84v-7.4H497.2v8c0,4.48-.32,10.48-2.52,14.16a19.36,19.36,0,0,0-3.8-2.6c1.84-3.24,2-7.8,2-11.56V1809h8.64v-11.16h4.8V1809h8.44Zm-19.36-21.84a27.79,27.79,0,0,0-3.6-7.4l4-1.76a27.38,27.38,0,0,1,3.92,7.2Zm4.32,6.52a38.93,38.93,0,0,1,9,3.2l-2,3.24a39.84,39.84,0,0,0-8.84-3.56Zm16.52-14.32a66.38,66.38,0,0,1-4,7.52l-4.12-1.52a49.41,49.41,0,0,0,3.48-7.64Z"/><path d="M549.24,1829.15c3.28,1.12,6.52,2.32,8.64,3.28l-3.48,2.84a90,90,0,0,0-11.36-4.6l1.52-1.52H534.8l2.92,1.36a50.89,50.89,0,0,1-12.52,4.8,25.37,25.37,0,0,0-3.44-3.44,49.6,49.6,0,0,0,10.44-2.72H527v-11.88c-.92.2-1.92.4-3,.56a16.31,16.31,0,0,0-2.28-3.72c4.76-.6,7.6-1.56,9.32-2.8H524.6a71.21,71.21,0,0,0,1.16-7.28h7.64v-1.6h-9.08v-2.8h9.08v-1.76h4.32v1.76h4.44v-1.76h4.52v1.76h8.48v7.16h-8.48v1.76h11s0,.76,0,1.24c-.2,2.48-.44,3.88-1.12,4.6a3.14,3.14,0,0,1-2.28,1c-.16,0-.4,0-.64,0v13.76Zm-20-20.6h3.8a8.56,8.56,0,0,0,.28-1.76h-3.8Zm2.32,8v1.6h17.2v-1.6Zm0,4.12v1.64h17.2v-1.64Zm0,5.84h17.2v-1.68H531.6Zm5.16-15.16a8.63,8.63,0,0,1-1.88,2.52h7.28v-2.52Zm5.4-4.52h-4.44c0,.6-.08,1.2-.16,1.76h4.6Zm-4.44-2.76h4.44v-1.6h-4.44Zm9-1.6v1.6h4.16v-1.6Zm0,8.88v2.52h3.56a5.7,5.7,0,0,0-.56-1.32,12.35,12.35,0,0,0,2.24.12,1,1,0,0,0,.84-.24,2.4,2.4,0,0,0,.28-1.08Z"/><path d="M585.52,1814.15c-1.56,1.12-3.08,2.16-4.72,3.2h14.52v17.76h-5v-1H576.6v1.2h-4.76v-13.08c-2,.88-4.08,1.76-6.12,2.52a26.15,26.15,0,0,0-2.92-3.92,71.23,71.23,0,0,0,14.88-6.64h-13.6V1810h12.84v-3.64h-9.4v-4.12h9.4v-4.32h4.72v4.32h8.68v2a48.88,48.88,0,0,0,4.12-5.08l4.08,2.08a58.48,58.48,0,0,1-7.88,8.8h9.28v4.2Zm4.84,7.08H576.6v2.56h13.76Zm0,8.88v-2.72H576.6v2.72ZM581.64,1810h2.2a54.38,54.38,0,0,0,4.32-3.64h-6.52Z"/><path d="M306.94,1346h-16v8.52H286V1346h-15.6v-4.52H286v-4.56H274.35v-18.08h28.44v18.08H290.91v4.56h16Zm-27.92-20h18.84V1323H279Zm0,6.76h18.84v-2.88H279Z"/><path d="M329.83,1324.09c-2.88,5.6-9,9.28-15,11.2a15.33,15.33,0,0,0-2.28-2.88,29.19,29.19,0,0,0,5.52-2.16,15.94,15.94,0,0,0-2.44-1.8c-.48.32-1,.64-1.48,1a9.61,9.61,0,0,0-2.48-2.44,16.48,16.48,0,0,0,5.88-5.12l2.44.48v-5.2h4v1.6h6.48v2.84h-6.48v1.28h2.52l.72-.16Zm14.92,8.8a46.08,46.08,0,0,0-5.4-3.84,24.25,24.25,0,0,1-4.68,2.32,11.06,11.06,0,0,0-1.08-1.76c-.24.28-.52.6-.8.88,4.12,2.68,11.08,5.24,16.76,6.44a17.46,17.46,0,0,0-2.6,3.4c-1.6-.44-3.24-1-5-1.6v7.8c.6-.56,1.12-1.12,1.56-1.56l3.32,2.08c-1.28,1-2.64,2-3.88,2.88a42.34,42.34,0,0,1,4.36,2l-2.28,2.72a83.27,83.27,0,0,0-13.16-5.44,31.86,31.86,0,0,0-.08,3.32c-9.6,1.12-11.12,1.4-12.12,1.88a9,9,0,0,0-1.44-3.28,2.41,2.41,0,0,0,1.32-2.48v-9.84c-1.72.68-3.44,1.28-5.2,1.84a15.09,15.09,0,0,0-2.48-3.4c7-1.8,14.56-5.2,18.52-9.76l2.6,1.36a4.55,4.55,0,0,0-.68-.76,19.38,19.38,0,0,0,3.16-1.28c-1.44-.76-2.84-1.48-4.16-2.08l2.64-2.56c1.56.68,3.28,1.52,5,2.36a14,14,0,0,0,2.56-2.76h-9.84v-3.24h12l.68-.12,2.64,1.08a18.82,18.82,0,0,1-4.48,7,37.87,37.87,0,0,1,5.12,3.4Zm-25.8-7.48c-.36.36-.68.72-1,1.08a28.56,28.56,0,0,1,3,2,20.64,20.64,0,0,0,3.52-3.12Zm21,12.52c-1.48-.64-3-1.36-4.4-2.08v1.2h-9.72v-1.28c-1.32.72-2.72,1.44-4.12,2.16Zm-15.76,3.56h13.32v-1.08H324.15Zm0,3h13.32v-1.24H324.15Zm7.44,4.56c-.64-.16-1.24-.36-1.8-.52l1.4-1.6h-7v2.88Zm2-14.32c-1.12-.68-2.24-1.4-3.28-2.12a27.33,27.33,0,0,1-2.92,2.12Zm1.16,12.2q2.46.78,4.92,1.68c.6-.56,1.24-1.12,1.88-1.68Z"/><path d="M390.74,1321.65v4.52H362.07v5.6c0,6.48-.6,16.48-4.32,22.76a21.18,21.18,0,0,0-4.2-2.76c3.36-5.76,3.64-14.2,3.64-20v-10.08h15a22.63,22.63,0,0,0-1.4-3.48l4.76-1a20.24,20.24,0,0,1,2,4.48Zm-13.2,9.44h12.24v4.28H377.55V1339h10.36v15H383v-1.56H369V1354h-4.68v-15h8.32v-11.68h4.92ZM383,1343.4H369v4.88h14Z"/><path d="M277.07,1394a16.43,16.43,0,0,0-1.44-1.64,19.46,19.46,0,0,1-3,4.88,23.89,23.89,0,0,0-2.92-2.72,19.68,19.68,0,0,0,4.12-9.24l3.84.8c-.24,1-.48,2-.8,3a14.6,14.6,0,0,1,2.52,2.32Zm0,10.92a20.28,20.28,0,0,1-3.48,7.68,22.1,22.1,0,0,0-3.44-2,14.81,14.81,0,0,0,3.08-6.48Zm5-2.4v11.92h-4.48v-11.92h-7.36v-4.12h7.36V1396h2.56a22.8,22.8,0,0,0-2.36-1.92c2-2.08,3.16-5.24,3.8-8.56l3.8.72a33.87,33.87,0,0,1-.92,3.48,32.9,32.9,0,0,1,3.72,4.12l-2.76,2.36a27.78,27.78,0,0,0-2.36-3.08,16.91,16.91,0,0,1-1.84,2.88h.84v2.36h6.52v4.12Zm6.28-17.36h-18V1381h7c-.36-1-.8-2-1.16-2.84l4.52-1a29.28,29.28,0,0,1,1.68,3.88h5.88Zm-2.32,18.8a35.89,35.89,0,0,1,3,6.6l-3.68,1.4a32.25,32.25,0,0,0-2.8-6.8Zm21,8.76h-12.6v1.76h-4.28v-20.76l-.44.6a33.65,33.65,0,0,0-3.52-3.12c2.76-3.32,5.12-8.68,6.4-13.92l4.44,1.08a61.46,61.46,0,0,1-2.16,6.28h12v4.24h-4.4v3.72h4v4h-4v3.84h4v4h-4v4h4.6Zm-8.84-23.84h-3.76v3.72h3.76Zm0,7.72h-3.76v3.84h3.76Zm-3.76,11.8h3.76v-4h-3.76Zm5.2-24a28.91,28.91,0,0,0-2.2-5.4l4.12-1.28a21.68,21.68,0,0,1,2.4,5.12Z"/><path d="M349.15,1410.64v3.28H324.83v-3.28h10V1409h-8.28v-3h8.28v-1.48h-7.8v-2.12l-3,3.32A54.74,54.74,0,0,0,321,1399v15.48h-4.12V1400.2c-.72,3.72-2,7.64-3.64,9.84a28.55,28.55,0,0,0-1.92-4.92,23.39,23.39,0,0,0,3.08-8.76l2.48.8v-2.32h-4.8v-4.4h4.8v-13.24H321v13.24h4.12v4.4H321V1398l2-1.48c.8.88,3.4,4.56,4.12,5.72v-7.72h19.88v10H339V1406h8.8v3H339v1.64Zm-35.67-21.52a66.2,66.2,0,0,0-1.72-8.56l3-.68a66.85,66.85,0,0,1,1.88,8.44ZM327,1381c-1.12,2.8-2.2,6.2-3.2,8.2l-2.6-1a58.11,58.11,0,0,0,2.28-8.36Zm-1.16,9h23.12v3.28H325.83Zm20.68-1.28H327.67v-10.24h18.84Zm-15.4,9.72h3.76v-1.56h-3.76Zm3.76,3.8v-1.56h-3.76v1.56Zm7.28-21.24H331.83v1.4h10.32Zm0,3.8H331.83v1.4h10.32Zm.64,12.08H339v1.56h3.76Zm0,3.8H339v1.56h3.76Z"/><path d="M368.87,1387.57a53.19,53.19,0,0,1-4.28,6.12v20.88h-4.76v-15.64c-1.12,1.08-2.2,2.08-3.28,3a46.8,46.8,0,0,0-3.24-4.12,39,39,0,0,0,11-12Zm-1.48-8.52a53.7,53.7,0,0,1-11,10.52,27.76,27.76,0,0,0-2.64-3.88,35.59,35.59,0,0,0,9-8.52ZM390.9,1395h-5.48v14c0,2.56-.48,3.88-2.24,4.6s-4.24.8-7.8.8a19.67,19.67,0,0,0-1.44-4.84c2.28.12,4.92.12,5.64.08s1-.16,1-.76V1395h-11.8v-4.52H390.9Zm-1-11H370.47v-4.52H389.9Z"/><path d="M281.19,1462.44h5.08v3.6h-5.08v4.12c0,2.12-.4,3.2-2,3.8s-3.64.6-6.52.6a16.48,16.48,0,0,0-1.32-4c1.84.08,3.88.08,4.44.08s.8-.2.8-.64v-4h-8.92a31.14,31.14,0,0,1,4,4.36l-3.76,2.4a30.83,30.83,0,0,0-4.68-5.48l2-1.28h-5.56v-3.6h16.92v-1.72c-5.8.16-11.44.28-15.68.36l-.4-3.56c2.84,0,6.48,0,10.44-.08v-1.6h-8.84v-11H271v-1.52H260.55v-1.88c-.8,1.84-1.72,3.72-2.72,5.52v27.48h-4.52V1454a36.56,36.56,0,0,1-2.72,3.2,30.05,30.05,0,0,0-2.52-4.92,42.51,42.51,0,0,0,9.08-15l4.52,1.44-.44,1.16H271v-2.44h4.6v2.44h10.28v3.44H275.59v1.52h9.12v11h-1.76a31.24,31.24,0,0,1,3.8,4.16l-3.4,1.88c-.24-.4-.6-.84-1-1.32l-1.2,0Zm-14.68-13.36H271v-1.64h-4.48Zm4.48,4.12v-1.64h-4.48v1.64Zm4.6-5.76v1.64h4.56v-1.64Zm4.56,4.12h-4.56v1.64h4.56Zm-4.56,5.8,3.84,0c-.48-.48-1-.92-1.4-1.32l.32-.16h-2.76Z"/><path d="M295.75,1464a43.2,43.2,0,0,1-1.76,9.76,15.94,15.94,0,0,0-3.52-1.28,34.5,34.5,0,0,0,1.6-9.08Zm7.08-2.36c-.08-.56-.2-1.12-.36-1.8-8,1.4-9.32,1.84-10.2,2.28a28.61,28.61,0,0,0-1.48-4.24c1.08-.28,1.92-1.12,3.12-2.64a29.22,29.22,0,0,0,2.44-3.16c-3,.36-3.84.56-4.4.84-.24-.92-1-3-1.44-4.2.76-.2,1.44-1,2.24-2.16a46.9,46.9,0,0,0,4.68-9.8l4.24,1.84a58.85,58.85,0,0,1-5.56,10l2.64-.2a65.24,65.24,0,0,0,3.08-6l3.92,2.44a71.19,71.19,0,0,1-8.32,12.28l4-.64c-.36-1-.76-2.08-1.16-3l3.2-1.24a34.28,34.28,0,0,1,2.8,8Zm-2.92,1.4a74.29,74.29,0,0,1,1.08,8.24l-3.52.88a81.88,81.88,0,0,0-.88-8.24Zm4.24-1.16c.72,2.08,1.56,4.76,2,6.48l-3.32,1.24a51,51,0,0,0-1.84-6.64Zm19.28,7.68c.72,0,.84-.76,1-5.44a12.43,12.43,0,0,0,4,1.76c-.4,6.16-1.48,7.88-4.48,7.88H321c-3.64,0-4.44-1.4-4.44-5.6v-11.92l-2.28.28c-.32,8.56-1.4,14.56-7.92,18.12a12.39,12.39,0,0,0-2.88-3.72c5.28-2.72,6.08-7.12,6.32-13.8a9.47,9.47,0,0,0-2.72.64,42.16,42.16,0,0,0-1.6-4.56c1-.28,1.76-1.24,2.76-2.88a31.81,31.81,0,0,0,2.4-4.16h-4.76v-4.44h6.8c.64-1.56,1.28-3.16,1.8-4.8l5.16,1.36c-.48,1.16-1,2.28-1.48,3.44h9.4v4.44H315.95a71.26,71.26,0,0,1-3.8,6.32l8.44-.8c-.64-1.08-1.28-2.12-1.84-3.12l3.84-1.72a53.41,53.41,0,0,1,5.4,9.92l-4.16,1.92a27.83,27.83,0,0,0-1.24-3.12l-1.56.2v12.4c0,1.24.08,1.4.76,1.4Z"/><path d="M353.95,1447.21v4.48h12.88v13.48c0,2.36-.48,3.68-2.16,4.4s-4,.8-7,.8a16.58,16.58,0,0,0-1.6-4.68c2,.12,4.36.12,5,.08s.88-.16.88-.68v-8.76h-7.92v18h-5v-18h-7.4v14h-4.8v-18.68H349v-4.48H333.43v-4.64h16c-.6-1.44-1.36-3.08-2-4.4l4.72-1.48c1,1.84,2.32,4.24,3,5.88H369.9v4.64Z"/><path d="M396.35,1457.2c-.32.64-.72,1.28-1.12,1.92h16.24s0,1.08-.08,1.64c-.56,7.8-1.2,11-2.28,12.16a3.72,3.72,0,0,1-2.64,1.36,25.1,25.1,0,0,1-4,.08,9.48,9.48,0,0,0-1.08-3.72c1.28.12,2.32.12,2.84.12a1.37,1.37,0,0,0,1.2-.44c.56-.6,1-2.64,1.48-7.48h-1.56c-1.64,4.48-4.76,9.32-8,11.84a13.09,13.09,0,0,0-3.36-2.64c3-1.92,5.72-5.48,7.44-9.2H399a30.51,30.51,0,0,1-9.36,10,14.08,14.08,0,0,0-3.12-2.8,24.13,24.13,0,0,0,8.16-7.24h-2.4a24.87,24.87,0,0,1-4.64,3.92,16.45,16.45,0,0,0-3.12-2.8c-2.88,1.44-5.76,2.88-8.2,4.08l-1.76-4.8c1.36-.52,3-1.2,4.92-2V1450h-4v-4.48h4v-7.88h4.4v7.88h3.76V1450h-3.76v9.44l3.2-1.4.84,3.4a19.49,19.49,0,0,0,3.68-4.24h-4.52v-4h25.16v4Zm13.2-5.52H390.63v-13.52h18.92Zm-4.4-10.24H394.83v1.92h10.32Zm0,5H394.83v1.92h10.32Z"/><path d="M722,1347.92a26.65,26.65,0,0,0,8.16.92c3,0,13.72,0,17.32-.16a19,19,0,0,0-1.8,4.72H730.16c-7.44,0-12.2-1-15.36-5.48a29.06,29.06,0,0,1-1.84,6.48,26.47,26.47,0,0,0-3.8-2.08c2-4,2.32-10.4,2.36-17.2l4.16.28c0,1.84-.08,3.68-.16,5.44a12.06,12.06,0,0,0,2.24,4.24v-12h-7.52v-4.2H717v-3.68h-5.84v-4.12H717v-4h4.4v4h5.68v4.12H721.4v3.68h6.36v1a10.72,10.72,0,0,0,4.76-7.44h-4.28v-4h17.64s0,1.08,0,1.64c-.28,6.64-.64,9.56-1.6,10.68a3.89,3.89,0,0,1-2.68,1.36,30.11,30.11,0,0,1-4.44.08,9.6,9.6,0,0,0-1.16-4,28.12,28.12,0,0,0,3.24.16,1.48,1.48,0,0,0,1.16-.4c.36-.52.64-2,.84-5.56H737c-.92,5-3.08,8.52-6.72,10.84a26.08,26.08,0,0,0-2.48-2v1.84H722v4.36h5.28v4.12H722Zm7.28-14.12h15.64v12.6H729.28Zm4.44,8.8h6.48v-5h-6.48Z"/><path d="M772.76,1327.09v4.48h12.88V1345c0,2.36-.48,3.68-2.16,4.4s-4,.8-7,.8a16.58,16.58,0,0,0-1.6-4.68c2,.12,4.36.12,5,.08s.88-.16.88-.68v-8.76h-7.92v18h-5v-18h-7.4v14h-4.8v-18.68h12.2v-4.48H752.25v-4.64h16c-.6-1.44-1.36-3.08-2-4.4l4.72-1.48c1,1.84,2.32,4.24,3,5.88h14.76v4.64Z"/><path d="M722,1407.92a26.65,26.65,0,0,0,8.16.92c3,0,13.72,0,17.32-.16a19,19,0,0,0-1.8,4.72H730.16c-7.44,0-12.2-1-15.36-5.48a29.06,29.06,0,0,1-1.84,6.48,26.47,26.47,0,0,0-3.8-2.08c2-4,2.32-10.4,2.36-17.2l4.16.28c0,1.84-.08,3.68-.16,5.44a12.06,12.06,0,0,0,2.24,4.24v-12h-7.52v-4.2H717v-3.68h-5.84v-4.12H717v-4h4.4v4h5.68v4.12H721.4v3.68h6.36v1a10.72,10.72,0,0,0,4.76-7.44h-4.28v-4h17.64s0,1.08,0,1.64c-.28,6.64-.64,9.56-1.6,10.68a3.89,3.89,0,0,1-2.68,1.36,30.11,30.11,0,0,1-4.44.08,9.6,9.6,0,0,0-1.16-4,28.12,28.12,0,0,0,3.24.16,1.48,1.48,0,0,0,1.16-.4c.36-.52.64-2,.84-5.56H737c-.92,5-3.08,8.52-6.72,10.84a26.08,26.08,0,0,0-2.48-2v1.84H722v4.36h5.28v4.12H722Zm7.28-14.12h15.64v12.6H729.28Zm4.44,8.8h6.48v-5h-6.48Z"/><path d="M788.24,1384.89H776.52l3.76.76c-.8,1.44-1.68,2.84-2.48,4.08h8.6V1410c0,2.12-.52,3-2,3.6s-3.6.6-6.8.6a12.62,12.62,0,0,0-1.28-3.48c1.92.08,4.2.08,4.8,0s.88-.2.88-.8v-16.36h-6.2v1c0,.76.08,1.12.76,1.12h2a10.84,10.84,0,0,0,2.32-.24,28,28,0,0,0,.28,3.16,9.11,9.11,0,0,1-2.52.28h-3.2c-3.24,0-3.8-1.52-3.8-4.36v-1h-2.84c-.48,3-1.72,4.88-5.2,6.16H778v9.76H766.48v1.64h-4v-11c-.48.12-1,.24-1.52.36a8.81,8.81,0,0,0-1.88-3v16.8h-4.56v-24.56h8.24a39.13,39.13,0,0,0-1.84-4l2.64-.84H752.68v-4h15.76a29.37,29.37,0,0,0-.92-3l4.6-1.16c.48,1.28,1,2.84,1.4,4.16h14.72Zm-29.12,12.32c3.72-.64,5-1.72,5.48-3.64h-5.48Zm14.24-7.48a29.47,29.47,0,0,0,2.08-4.84H765.36c.72,1.32,1.56,2.88,2,3.92l-2.56.92ZM766.48,1403v3.2h7.76V1403Z"/><path d="M725.64,1470v3.44H689.29V1470h15.8v-1.44H692.84v-3.08h12.24v-1.28H693.64v-10.24h27.63v10.24H709.64v1.28H722v3.08h-12.4V1470Zm-.08-17.24H689.37v-3.4h36.19Zm-5.2-4.6h-26v-9.88h26Zm-22.24,9.72h7v-1.4h-7Zm7,3.76v-1.4h-7v1.4Zm10.48-20.88H699V1442h16.6Zm0,3.64H699v1.32h16.6Zm1.08,12.08h-7v1.4h7Zm0,3.76h-7v1.4h7Z"/><path d="M739,1465.61a26.76,26.76,0,0,1-5,9,30.66,30.66,0,0,0-3.72-2.56,18.2,18.2,0,0,0,4.32-7.4Zm6.6-1.32H732.64v-25.68h12.92Zm-4.4-21.92h-4.28V1446h4.28Zm0,7.16h-4.28v3.72h4.28Zm0,7.24h-4.28v3.72h4.28Zm25.6-7.2c-.76,6.76-2.36,12.08-4.8,16.2a19.57,19.57,0,0,0,6.6,4.92,15.65,15.65,0,0,0-3.08,3.8,22,22,0,0,1-6.28-5,23.51,23.51,0,0,1-6.32,4.84,16.23,16.23,0,0,0-2.56-3.72,18.31,18.31,0,0,1-2.08,3.92,19.29,19.29,0,0,0-3.8-2.44,15.82,15.82,0,0,0,1.24-2.08l-3.24,1.56a29.38,29.38,0,0,0-3-5.52l3.68-1.56a33.58,33.58,0,0,1,3,4.68c2-4.64,2.2-10.4,2.2-15v-15H767v4.28H752.64V1449H763.2l.76-.08Zm-10.36,16.08a41,41,0,0,1-3.8-8.92,43.87,43.87,0,0,1-2.16,13.56A17.57,17.57,0,0,0,756.4,1465.65Zm-.68-12.48a34.69,34.69,0,0,0,3.32,8.48,31.5,31.5,0,0,0,2.8-8.48Z"/><path d="M809.56,1441.53V1446H780.88v5.6c0,6.48-.6,16.48-4.32,22.76a21.14,21.14,0,0,0-4.2-2.76c3.36-5.76,3.64-14.2,3.64-20v-10.08h15a22.67,22.67,0,0,0-1.4-3.48l4.76-1a20.28,20.28,0,0,1,2,4.48Zm-13.2,9.44H808.6v4.28H796.36v3.68h10.36v15h-4.88v-1.56h-14v1.56h-4.68v-15h8.32v-11.68h4.92Zm5.48,12.32h-14v4.88h14Z"/></g><path d="M865.43,597.88a26.12,26.12,0,0,0-5.6-3.71l1.31-1.7a28.91,28.91,0,0,1,5.7,3.49Zm2.14,4.19c-1.34,3.36-3.2,7.36-4.77,10.37L860.69,611a114.06,114.06,0,0,0,5.15-10.3Zm-.86-12.58a24.56,24.56,0,0,0-5.38-3.9l1.41-1.6a24.05,24.05,0,0,1,5.44,3.68Zm19.65,20.8c.8,0,1-.67,1.06-4.8a6.24,6.24,0,0,0,2.08,1c-.22,4.7-.77,6-2.91,6h-3.23c-2.37,0-3-.7-3-3.17V599.09h-4.13c-.45,6.82-1.7,11.26-7.94,13.79a5.92,5.92,0,0,0-1.47-1.89c5.73-2.11,6.69-6,7-11.9h-5.57v-2.27h9.31v-5.7h-4.67a22.85,22.85,0,0,1-2.46,4.77,15.06,15.06,0,0,0-2.08-1.28c1.92-2.53,3.26-6.5,4-10.5l2.37.45a36.28,36.28,0,0,1-1.09,4.29h3.9v-5.22H880v5.22h7.87v2.27H880v5.7h9.12v2.27h-6.37v10.14c0,.9.13,1.06.93,1.06Z"/><path d="M897.49,597.91a24.3,24.3,0,0,0-5.6-3.42l1.15-1.79a23.3,23.3,0,0,1,5.66,3.26Zm-4.93,12.89a103.21,103.21,0,0,0,5.6-9.86l1.6,1.54c-1.57,3.26-3.65,7-5.38,9.92ZM899,589.46a23.57,23.57,0,0,0-5.5-3.74l1.18-1.73a24.42,24.42,0,0,1,5.6,3.55Zm22.33,11h-2.62v4.9h-7.49v4.45c0,1.41-.29,2-1.22,2.37s-2.56.38-5,.38a8.46,8.46,0,0,0-.77-2.18c1.89.06,3.58,0,4.06,0s.64-.16.64-.64v-4.42h-7.26v-2H909v-2.91H900v-2.08H909v-2.85h-7.1v-2h16.83v4.83h2.62Zm-2.43-15c-4.58,1.28-11.61,2.11-17.53,2.53a7.13,7.13,0,0,0-.58-1.82c5.79-.48,12.67-1.34,16.45-2.4Zm-15.26,7.87a13.29,13.29,0,0,0-1.7-4l1.7-.67a16,16,0,0,1,1.86,3.9Zm6-.38a21,21,0,0,0-1.57-4.42l1.79-.54a20.46,20.46,0,0,1,1.66,4.32Zm1.54,5.41h5.41v-2.85h-5.41Zm5.41,2.08h-5.41v2.91h5.41Zm-2.46-8.22a30.4,30.4,0,0,0,2.53-5l2.18.7a46.86,46.86,0,0,1-2.78,4.9Z"/><path d="M943.22,601,941,602.87a55.07,55.07,0,0,0-7.07-7.1l2.08-1.82A60,60,0,0,1,943.22,601Z"/><path d="M981.23,585.37c0,11.9,0,25,1.89,25,.38,0,.58-2.11.64-4.9a8.45,8.45,0,0,0,1.44,1.66c-.22,4.1-.7,5.73-2.34,5.73-3.87,0-3.81-11.29-3.94-25.25H961.68v8.06c0,5.15-.54,12.45-4.16,17.25a8.05,8.05,0,0,0-1.89-1.34c3.42-4.54,3.78-11,3.78-15.9V585.37Zm-5.82,18.85a24.44,24.44,0,0,1,3.78,7l-1.92.7a14,14,0,0,0-1-2.43c-5.31.38-10.78.74-14.56,1l-.16-2.14c2-.1,4.61-.26,7.46-.45v-4.48h-5.54v-8.7H969v-3.07h-6v-2h14.3v2h-6.21v3.07h5.66v8.7h-5.66v4.35l4.16-.26a27.59,27.59,0,0,0-1.73-2.69ZM969,601.56v-4.9h-3.62v4.9Zm2.11-4.9v4.9h3.65v-4.9Z"/><path d="M996.37,605.78h5.57v2h-5.57v4.83h-2.3v-4.83h-5.82v-2h5.82v-2.94h-4.74V591.41H994v-2.88h-5.5v-2H994v-3h2.33v3h5.57v2h-5.57v2.88h4.83v11.42h-4.8Zm-4.9-9.47H999v-3h-7.49Zm0,4.64H999v-3.07h-7.49Zm14.5-10.24a25.12,25.12,0,0,1-2.62,4,15.16,15.16,0,0,0-2-1.38,25.49,25.49,0,0,0,5-9.6l2.24.58a37.18,37.18,0,0,1-1.54,4.1h10v2.27Zm8,19.36c1.06,0,1.34-.54,1.44-4.45a6.12,6.12,0,0,0,2,.77c-.29,5.12-1.12,6-3.52,6h-6.66c-2.85,0-4.13-1.12-4.13-2.94,0-1.41.32-3.1,7.78-12.13h-7.1v-2.21h9.28l.51,0,1.57.61a4,4,0,0,1-.29.51c-8.77,10.3-9.41,11.9-9.41,12.93,0,.74.74,1,1.79,1Z"/><path d="M1039.15,601l-2.18,1.82a55.07,55.07,0,0,0-7.07-7.1l2.08-1.82A60,60,0,0,1,1039.15,601Z"/><path d="M865.88,636.37a34.32,34.32,0,0,0-6-3.49l1.31-1.76a38.43,38.43,0,0,1,6,3.23Zm-4.93,12.83a89,89,0,0,0,5.25-9l1.76,1.47c-1.47,3-3.33,6.43-4.93,9.05Zm1.92-26.78a32.89,32.89,0,0,1,6.18,3.42l-1.38,2a39.89,39.89,0,0,0-6.14-3.65Zm25,6.27V651h-2.3v-1.7H872.47v1.89h-2.27V628.69h7.52v-6.62H880v6.62ZM872.47,631v6.75h5.25V631Zm0,16h5.25v-7h-5.25ZM880,631v6.75h5.47V631Zm5.47,16v-7H880v7Z"/><path d="M901.49,641.24a55.64,55.64,0,0,1,1.79,7.87l-1.73.48c-.06-.64-.19-1.38-.35-2.18-3.1.61-6.24,1.15-8.74,1.63l-.35-2.34c1.28-.19,2.85-.42,4.54-.7v-6.66h-2v1.73H893V627.8h3.65v-5.63h2v5.63h3.74v11.55h-3.74v6.33l2.14-.38c-.29-1.25-.61-2.53-.93-3.65Zm-6.69-11.42v7.52h2.08v-7.52Zm5.79,0h-2.21v7.52h2.21Zm6-.35a26.94,26.94,0,0,0-3.71-3.65,43.85,43.85,0,0,0,3.49-3.71l2,.61a38.66,38.66,0,0,1-3,3,26.44,26.44,0,0,1,3.3,3.17l-1.28.54h5a29.56,29.56,0,0,0-4.13-3.71A39.71,39.71,0,0,0,912,622.1l2,.61a39,39,0,0,1-3.14,3,26.19,26.19,0,0,1,3.42,3l-1.57.74h5.22a33.33,33.33,0,0,0-4.35-3.71,44.18,44.18,0,0,0,4-3.68l2,.64c-1.06,1-2.3,2.08-3.46,3a29.59,29.59,0,0,1,3.78,3.1l-1.28.64h1.12v8.9h-16v-8.9Zm-.48,11.26h3.52v1.7h-3.52v1.89h3.52V646h-3.52v2.46l3-.74a7.86,7.86,0,0,0,.29,1.63c-4.35,1.34-5.09,1.66-5.54,2a6.27,6.27,0,0,0-.64-1.89c.45-.1,1-.29,1-1.31v-9h1.89Zm11.52-9.7H905.75v5.76h11.94Zm-1.41,5.15c-1.12-.58-3.07-1.44-4.74-2.11a16.8,16.8,0,0,1-3.87,2.37,8.38,8.38,0,0,0-1.38-1.12c2.3-.9,4.51-2.27,5.54-4.06l1.73.42a7.46,7.46,0,0,1-.86,1.28,48.61,48.61,0,0,1,4.51,1.89Zm.06,11.26a8.53,8.53,0,0,0,.32,1.66c-5.06,1.54-5.86,1.82-6.3,2.18a7.42,7.42,0,0,0-.61-1.86c.42-.13.93-.32.93-1.34v-9h1.86v1.7h3.58v1.66h-3.58v1.89h3.55V646h-3.55v2.43Zm2.37-8.26c-.1,5.7.38,9.89,1,9.89.26,0,.48-.77.58-2.4a5.36,5.36,0,0,0,1.28.93c-.35,2.69-1,3.58-1.76,3.58-2.24,0-3-5.41-3-12Z"/><path d="M939.89,639a17.25,17.25,0,0,1-3.23,7.42c2.27,1.92,5.34,2.37,9.06,2.37,1,0,6.91,0,8.22,0a6.33,6.33,0,0,0-.74,2h-7.58c-4.35,0-7.74-.58-10.27-2.91a16.56,16.56,0,0,1-5.92,3.52,6.34,6.34,0,0,0-1.12-1.66,13.7,13.7,0,0,0,5.76-3.33,15.93,15.93,0,0,1-1.86-3.55,13.33,13.33,0,0,1-2.11,2.3,13.29,13.29,0,0,0-1.34-1.28,21.19,21.19,0,0,1-2.53,7.46,7.84,7.84,0,0,0-1.86-1.44c2.5-4.16,2.75-10,2.75-14.17v-7.81h10.43V622h2.34v2h10.94v1.79H939.89v2h11.17l.38-.1,1.66.45a35,35,0,0,1-2.21,5.18l-2-.61a21.75,21.75,0,0,0,1.28-3H939.79v1.92l8.13-.51.1,1.6-8.22.54v.74c0,.9.19,1.18,1.28,1.18h7.46a25.42,25.42,0,0,0,3.3-.19c.06.61.1,1.25.19,1.76a18.08,18.08,0,0,1-3.3.16h-7.87c-2.69,0-3.3-.83-3.3-2.91v-.58l-6.34.42-.1-1.63,6.43-.42v-2.08H929.4v6a50.63,50.63,0,0,1-.58,7.87,16.62,16.62,0,0,0,4.83-7.46l1.89.48c-.26.74-.51,1.41-.83,2.11h3.58l.38-.06Zm-6.08,1.47a6.61,6.61,0,0,0-.35.67,11.8,11.8,0,0,0,1.86,3.87,13.75,13.75,0,0,0,2.27-4.54ZM949.07,647c-1.6,0-2-.42-2-2v-4.48h-3.26v.74a7.68,7.68,0,0,1-3,6.5,8.55,8.55,0,0,0-1.47-1.38,5.94,5.94,0,0,0,2.53-5.18v-2.5h7.07V645c0,.61.06.7.48.7h1.25c.38,0,.48-.35.58-2a4.28,4.28,0,0,0,1.47.58c-.13,2.18-.61,2.78-1.79,2.78Z"/><path d="M967.12,644.63c-3.42,1.15-7.07,2.4-9.92,3.33l-.54-2.4c1.18-.35,2.66-.8,4.29-1.34v-8.61H957.3v-2.24h3.65v-6.94h-4v-2.24h9.92v2.24h-3.68v6.94h3.23v2.24h-3.23v7.9l3.49-1.15Zm19.1,3.39v2.18H965.62V648h9.73v-4.38h-7.26v-2.18h7.26v-3.74h-6.88V623.48h16.25v14.24h-7v3.74h7.46v2.18h-7.46V648Zm-15.58-18.43h4.86v-4h-4.86Zm0,6h4.86v-4.1h-4.86Zm11.81-10.08h-4.9v4h4.9Zm0,6h-4.9v4.1h4.9Z"/><path d="M1007.86,639.45l-2.18,1.82a55,55,0,0,0-7.07-7.1l2.08-1.82A60.12,60.12,0,0,1,1007.86,639.45Z"/><path d="M859.92,688.76a29,29,0,0,0,4.19-6.53l2.24.64a34.74,34.74,0,0,1-4.16,6.91Zm3.84-7.14h-2.24V661.78h9.25V680h-7Zm0-17.69v5.57h4.8v-5.57Zm4.8,13.92v-6.24h-4.8v6.24Zm3,5.09a41,41,0,0,1,.8,6.24l-2.34.35a37.54,37.54,0,0,0-.67-6.37Zm8.26-19.07c-.74,3.87-2.46,6.43-7.36,7.9a6.85,6.85,0,0,0-1.28-1.79c4.16-1.12,5.66-3.14,6.3-6.11h-5.31v-2.11h15.71s0,.61-.06.93c-.29,4.61-.58,6.5-1.28,7.23a2.4,2.4,0,0,1-1.86.74,27.23,27.23,0,0,1-3.58,0,5.18,5.18,0,0,0-.64-2c1.41.13,2.72.16,3.2.16a1.23,1.23,0,0,0,1-.29c.38-.42.64-1.66.86-4.67ZM887,681H873.11v-8.8H887Zm-2.34-6.85h-9.31V679h9.31Zm-6.27,8.45a36.74,36.74,0,0,1,2.08,6.27l-2.34.58a39.51,39.51,0,0,0-2-6.4Zm6.4-.64a44.87,44.87,0,0,1,4.16,6.72l-2.27,1a42.91,42.91,0,0,0-4-6.82Z"/><path d="M901.2,665.27a18.86,18.86,0,0,1-.9,2.21,7.55,7.55,0,0,0,5.28,3.17v-6.75H894.16v-2h24l.42-.1,1.66.51a34.78,34.78,0,0,1-2.53,5.34l-2-.54a27.51,27.51,0,0,0,1.5-3.2h-9.28v2.56h7.58v1.76h-7.58v2.72c1.09.1,2.34.13,3.65.13s8.1,0,9.79-.06a7.53,7.53,0,0,0-.86,2.18h-8.93c-6,0-9.76-.64-12.16-4a18.38,18.38,0,0,1-6.27,6.37A10.82,10.82,0,0,0,892,673.3a14.86,14.86,0,0,0,7-8.58Zm12.51,17.57c2.56,1.76,5.79,4.19,7.49,5.66L919.67,690c-.74-.67-1.73-1.5-2.78-2.33-8.58.38-17.69.8-23.68,1l-.19-2.27c3.23,0,7.71-.13,12.64-.26v-3.3h-9.89V676h9.89v-2.08H908V676h9.92v6.88ZM905.65,681v-3.2H898V681Zm2.3-3.2V681h7.55v-3.2Zm6.62,8.1c-.86-.61-1.76-1.28-2.53-1.82l1.44-1.22H908v3.23Z"/><path d="M932.92,677.94c-.38-1-1.34-2.85-2.14-4.38v16.06h-2V673.75a39,39,0,0,1-3.33,9,15.33,15.33,0,0,0-1.06-2.34c1.63-2.56,3.26-7.42,4.06-11.65H925v-2.24h3.81v-6.14h2v6.14h2.91v1.7a23.91,23.91,0,0,0,8.93-8l2.3.74c-.22.35-.45.74-.7,1.09a31.5,31.5,0,0,0,9.66,5.5,10.24,10.24,0,0,0-1.06,2.14,39.56,39.56,0,0,1-9.82-6.14,26.36,26.36,0,0,1-4.35,4.06h9.44v1.92h-9.53v-1.86a30,30,0,0,1-3.42,2.24,10.41,10.41,0,0,0-1.44-1.5v.38h-2.91v2.08c.8,1.15,2.82,4.45,3.3,5.28Zm7.17,2.72a19.1,19.1,0,0,1-.9,2.37,24.14,24.14,0,0,1,3.62,2.78l-1.28,1.6a22.34,22.34,0,0,0-3.26-2.75,16.55,16.55,0,0,1-4.77,5.09,12.8,12.8,0,0,0-1.63-1.57,13.59,13.59,0,0,0,6.11-7.94Zm-4.83-8.83h7.13v7.68h-7.13Zm1.82,6h3.42v-4.19h-3.42Zm12,2.72a19.21,19.21,0,0,1-.83,2.82,37.06,37.06,0,0,1,5.54,4.22l-1.44,1.63a37.2,37.2,0,0,0-4.93-4,12.69,12.69,0,0,1-3.9,4.51,10.57,10.57,0,0,0-1.6-1.57,11.76,11.76,0,0,0,5-7.87Zm-4.67-8.67h7.33v7.68h-7.33Zm1.86,6h3.52v-4.19h-3.52Z"/><path d="M985.52,666.58h-10.3a96,96,0,0,1,10.24,6.82l-1.54,1.66a96.68,96.68,0,0,0-11.42-7.81v6h-2.34v-6.5a30,30,0,0,1-11.94,8.77,14.85,14.85,0,0,0-1.57-1.89,27.94,27.94,0,0,0,10.91-7H957.33v-2.11h12.83v-4h2.34v4h13Zm-27.65,19.9h27.2v2.14h-27.2Zm22.33-12.29v10.37H962.55V674.2Zm-2.43,1.7H964.88v2.66h12.89Zm0,4.32H964.88v2.66h12.89Z"/><path d="M1007.86,677.85l-2.18,1.82a55.07,55.07,0,0,0-7.07-7.1l2.08-1.82A60,60,0,0,1,1007.86,677.85Z"/><path d="M867.19,705.37a31,31,0,0,1-5.54,6.08,15,15,0,0,0-2-1.73,27.61,27.61,0,0,0,8.51-11.07l2.4.7a34.2,34.2,0,0,1-2,3.74h17.66v1.12c-.35,10.62-.67,14.33-1.57,15.49a2.58,2.58,0,0,1-2,1.09,23.35,23.35,0,0,1-3.71,0,6.48,6.48,0,0,0-.61-2.27,26,26,0,0,0,3.2.13,1,1,0,0,0,1.06-.42c.61-.77,1-4,1.22-12.86Zm16.09,19.74c2.72,0,3.17-.7,3.52-4a7.25,7.25,0,0,0,2.27.86c-.48,4.19-1.44,5.38-5.76,5.38H871.25c-5,0-6.46-.86-6.46-4.42V708.66h13v9.44H867.12v4.83c0,1.73.61,2.18,4,2.18Zm-16.16-14.3V716h8.32v-5.15Z"/><path d="M897.14,709.21c-.35,2.66-1.34,4.64-3.87,5.89a4.76,4.76,0,0,0-1.34-1.54,5.22,5.22,0,0,0,3-4.35h-2.3v-1.92h7.94V705.4h-6.43v-6h2.08v4.06h4.35v-4.61h2.24v15.68h-2.24v-5.28Zm22.17,10.27a43.07,43.07,0,0,1-5.66,3.23,21.61,21.61,0,0,0,7.94,3.26,7.32,7.32,0,0,0-1.38,1.92c-6.27-1.54-11-5-13.6-10.21h-.1a24.84,24.84,0,0,1-4.93,3v4.51l7.49-1.54a13.36,13.36,0,0,0-.1,1.89c-8.64,2-9.66,2.27-10.3,2.62a8.75,8.75,0,0,0-1-1.89,2.53,2.53,0,0,0,1.54-2.37v-2.24a35.75,35.75,0,0,1-5.86,1.76,8.43,8.43,0,0,0-1.31-1.76,36.26,36.26,0,0,0,11.23-4H892.53V715.8h13.31c-.32-.67-.7-1.44-1.06-2l2.27-.67a20.56,20.56,0,0,1,1.47,2.72H921v1.89H908.91a15.74,15.74,0,0,0,3.2,3.84,44.32,44.32,0,0,0,5.44-3.3Zm-8.22-14.17h-6.88v-2.08h6.88v-4.42h2.34v4.42h7.17v2.08h-7.17v5.28H920v2h-15v-2h6.18Z"/><path d="M943.22,716.25,941,718.07A55.07,55.07,0,0,0,934,711l2.08-1.82A60,60,0,0,1,943.22,716.25Z"/><path d="M960.91,721.43a42.37,42.37,0,0,1-3.36,6,13.27,13.27,0,0,0-1.73-1.12,30.39,30.39,0,0,0,3.14-5.5Zm5.44-1.63h-9.25V700.34h9.25Zm-2.11-17.47h-5.09v3.9h5.09Zm0,5.76h-5.09V712h5.09Zm0,5.79h-5.09v4h5.09Zm-.06,6.91a37.42,37.42,0,0,1,3,4.7l-1.73,1.09a37.44,37.44,0,0,0-2.91-4.86Zm20.58-7.65h-6.85v11.81c0,1.34-.26,2-1.25,2.4a16.86,16.86,0,0,1-4.93.38,7.55,7.55,0,0,0-.74-2.27c1.82,0,3.49,0,4,0s.64-.16.64-.58V713.14h-8v-2.21h17.15Zm-14.4-3.74h-2.18v-5.92h15.9v5.92h-2.27v-3.81H970.35Zm5.47-6a28.5,28.5,0,0,0-1.92-3.84l2-.8a31.51,31.51,0,0,1,2,3.74Z"/><path d="M995.86,714.36a35.44,35.44,0,0,1-2.4,8.06c.61.38,1.31,1,2.43,1.6,2.24,1.38,5.15,1.6,8.93,1.6,4.13,0,9.28-.32,12.86-.67a8.38,8.38,0,0,0-.74,2.46c-2.37.16-8.42.35-12.22.35-4.19,0-7-.35-9.34-1.76-1.28-.77-2.5-1.86-3.2-1.86s-1.79,2-2.72,4L987.83,726a12.53,12.53,0,0,1,3.49-3.74,27.25,27.25,0,0,0,2-6.46h-4.19c.9-1.89,2-4.61,2.88-7.14h-3.71v-2.14h6.75c-.83,2.3-1.89,5-2.78,7.2h1.79l.35-.1Zm-4.26-9.5c-.38-1.38-1.09-3.55-1.63-5.22l2.11-.61c.54,1.66,1.28,3.74,1.7,5.12Zm7.14.86h-2.18V700h19.84v5.76h-2.3v-3.87H998.74Zm6.59,18.24V721.3h-8.64v-1.82h8.64v-2h-7v-9.05h7v-1.92h-6.27v-1.79h6.27v-1.63h2.3v1.63h6v1.79h-6v1.92h7.07v9.05h-7.07v2h9v1.82h-9V724Zm-4.86-11.74h4.86V710.1h-4.86Zm4.86,3.68v-2.11h-4.86v2.11Zm2.3-5.79v2.11h4.9V710.1Zm4.9,3.68h-4.9v2.11h4.9Z"/><path d="M206.49,1940.72a12.56,12.56,0,0,0-1.09-1.6c-4.4.31-6,.45-6.8.56a30.18,30.18,0,0,0,9.94,4.87,4.66,4.66,0,0,0-.87,1.09,30.8,30.8,0,0,1-12.26-7.28c-2.77,3.53-7.06,6-11.62,7.53a5.66,5.66,0,0,0-.87-1.09,25.28,25.28,0,0,0,9.13-4.73l-.31.14a5,5,0,0,0-.45-.84c-5.52.31-6.3.39-6.72.56a6.8,6.8,0,0,0-.45-1.26,2.75,2.75,0,0,0,1.18-.64,18,18,0,0,0,3.05-3.33l1.26.59a23,23,0,0,1-3.16,3.22l4.09-.17a9.42,9.42,0,0,0-1-1.15l1-.45a17.92,17.92,0,0,1,2.13,2.77,14.6,14.6,0,0,0,2.58-3.28l1.26.42c-.14.25-.28.48-.45.73a15.55,15.55,0,0,0,1.68,1.62c-.06-.14-.14-.34-.2-.45a1.79,1.79,0,0,0,.92-.59,11.79,11.79,0,0,0,2.18-3l1.26.62a19.13,19.13,0,0,1-2.21,2.8l4.79-.28a18.39,18.39,0,0,0-1.46-1.48l1-.5a19.06,19.06,0,0,1,3.47,4Zm-3-5.52c-.42-.48-1-1-1.65-1.57-12.82.64-14,.67-14.7.9a11.24,11.24,0,0,0-.42-1.29,4.79,4.79,0,0,0,1.68-.62,26.78,26.78,0,0,0,4.76-3.42l1.26.67a30.8,30.8,0,0,1-4.73,3.22l10.86-.48a33.12,33.12,0,0,0-2.8-1.93l1-.62a31.9,31.9,0,0,1,5.82,4.4Zm.67,12.71c-3.28,3.53-9.72,5.8-16.66,6.83a5.17,5.17,0,0,0-.73-1.18c6.89-.92,13.13-3,16.24-6.24Zm-6.61-5.68a30,30,0,0,1-9.32,4.68,8.73,8.73,0,0,0-.84-.92,28,28,0,0,0,9.1-4.31Zm3.11,2.83c-2.8,2.35-7.62,4.34-11.93,5.4a4.45,4.45,0,0,0-.78-1c4.26-1,9-2.77,11.65-5Z"/><path d="M226.4,1939.13c-1.57,1.15-3.25,2.27-5,3.28h12v1.18H220.91c-.42,1.09-.92,2.24-1.34,3.22H231.8l-.08.67c-.59,3.95-1.12,5.68-2,6.38a2.84,2.84,0,0,1-2,.59c-.92,0-2.91,0-5.07-.17a2.7,2.7,0,0,0-.42-1.26c2.16.2,4.42.22,5.12.22a2.3,2.3,0,0,0,1.34-.22c.67-.48,1.12-1.87,1.6-5H217.61c.64-1.23,1.34-3,2-4.54a67.16,67.16,0,0,1-7.76,3.61,4.88,4.88,0,0,0-.76-1.18,59.13,59.13,0,0,0,13.24-6.78H211.84v-1.23h10.05v-3.78h-7.5v-1.2h7.5v-3.53h1.34v3.53h6.3v1.2h-6.3v3.78H226a40.51,40.51,0,0,0,7.5-7.11l1.12.64a45.22,45.22,0,0,1-6.61,6.47h8v1.23Z"/><path d="M247.43,1936.75h-7.81v-1.15h7.81Zm1.9,14.64a44.14,44.14,0,0,1-8.48,3.28,7.18,7.18,0,0,0-1-1.06,38.07,38.07,0,0,0,8.26-2.74Zm-2.63-19h-6.47v-1.15h6.47Zm-3.36,6.8H261.2v11.23H243.34Zm1.32,3.39h15.2v-2.32h-15.2Zm0,3.36h15.2v-2.32h-15.2Zm0,3.44h15.2v-2.41h-15.2Zm7.22-16.83a14.63,14.63,0,0,1-2.18,3.08,7.89,7.89,0,0,0-1.06-.73,13.85,13.85,0,0,0,3.25-5.54l1.26.28a13.65,13.65,0,0,1-.7,1.76h10.33l.22-.06.9.34a27.8,27.8,0,0,1-2.27,3.84l-1.09-.36a26.65,26.65,0,0,0,1.54-2.6h-5.32v.22a5.54,5.54,0,0,1-.14,1.32c1.48,1.79,4.62,3.11,8.26,3.5a7.08,7.08,0,0,0-.78,1.09,13.52,13.52,0,0,1-7.87-3.61c-.84,1.48-2.94,2.91-8.09,3.84a4.59,4.59,0,0,0-.76-1.06c7.5-1.18,8.12-3.44,8.12-5.1v-.2Zm4.09,18.34a64.4,64.4,0,0,1,8.43,2.91l-1.2.84a69,69,0,0,0-8.18-3Z"/><path d="M271.45,1942.32c-.62,3.05-1.79,6.94-3.08,9a8.09,8.09,0,0,0-.78-1.34,26.1,26.1,0,0,0,2.83-7.9Zm2.38-2.27v14.64h-1.29v-14.64H267.9v-1.29h4.65v-9.38h1.29v9.38h4.84v1.29Zm-3.92-2.55a25.38,25.38,0,0,0-1.68-6l1.06-.25a25.23,25.23,0,0,1,1.76,6Zm5.35,4.51c.53.87,2.49,4.87,2.91,5.88l-1.06,1c-.45-1.43-2.1-5.26-2.63-6.33Zm3.14-10.5a61.55,61.55,0,0,1-2.35,6.13l-1-.34a45.36,45.36,0,0,0,2-6.16Zm11,15.12v8.06h-1.29v-7.84l-9.27,1.71-.25-1.23,9.52-1.71v-16.24h1.29v16l3.53-.62.22,1.21Zm-5.21-3.75a22,22,0,0,0-4.7-3.28l.64-1a21.35,21.35,0,0,1,4.73,3.14Zm1.29-6.75a20.36,20.36,0,0,0-4.48-3.56l.76-1a19,19,0,0,1,4.42,3.47Z"/><path d="M320.84,1929.1l.76.76L296.48,1955l-.76-.76Z"/><path d="M332.44,1947.81v5l6-1.37a6.91,6.91,0,0,0,0,1.09c-6.83,1.71-7.62,1.9-8.06,2.24a4,4,0,0,0-.56-1.21,1.9,1.9,0,0,0,1.26-1.76v-4H328a15.12,15.12,0,0,1-2.63,7,4.4,4.4,0,0,0-1.12-.76c2.3-2.91,2.69-6.89,2.69-9.74v-3.56h21.78v1.15h-20.5v1.82h19v1.09h-19c0,.59-.06,1.21-.11,1.85h21.2v1.12H337.56a10.29,10.29,0,0,0,3,2.91,47.56,47.56,0,0,0,5.71-2.63l1,.84a39.09,39.09,0,0,1-5.68,2.38,21.48,21.48,0,0,0,8,2.18,4.8,4.8,0,0,0-.84,1.23c-6-.76-10.36-3.11-12.43-6.92Zm14.48-8.68H327.26v-7.67h5.91v-2.07h1.32v2.07h4.93v-2.07h1.32v2.07h6.19Zm-18.4-4.4h4.65v-2.21h-4.65Zm0,3.33h4.65v-2.3h-4.65Zm6-5.54v2.21h4.93v-2.21Zm0,3.25v2.3h4.93v-2.3Zm11.14-3.25h-4.9v2.21h4.9Zm0,3.25h-4.9v2.3h4.9Z"/><path d="M364.36,1936.41c-2.66,2.88-7.28,5.43-11.06,6.69a5.31,5.31,0,0,0-.87-1.09,27.29,27.29,0,0,0,10.25-5.6H353v-1.2h11.56v-3.42c-3.14.28-6.38.45-9.35.56a2.75,2.75,0,0,0-.34-1.09c6.44-.22,14.5-.87,18.59-1.85l1.06,1a74.81,74.81,0,0,1-8.65,1.26v3.5h11.68v1.2H365.84v6h-1.32v-6Zm9.27,6.61a14.68,14.68,0,0,1-.53,1.68h4.76v1.2h-5.29a12,12,0,0,1-4.31,5c3.64.92,6.86,1.9,9.32,2.8l-1.32,1a90.47,90.47,0,0,0-9.46-2.91c-3,1.6-7.11,2.52-12.52,2.94a4,4,0,0,0-.59-1.26,34.26,34.26,0,0,0,11.12-2.18c-2.46-.59-5.12-1.18-7.84-1.71a43.54,43.54,0,0,0,3.05-3.64h-7.36v-1.2h8.29a30.08,30.08,0,0,0,2-3.22l1.34.39a24.79,24.79,0,0,1-1.79,2.83h9.1a19.89,19.89,0,0,0,.73-2.07Zm-12,2.88c-.81,1.06-1.68,2.1-2.41,2.94,2.46.5,4.9,1,7.25,1.6a11.32,11.32,0,0,0,4.51-4.54Zm5.91-9.3a99.74,99.74,0,0,1,10.67,5.29l-.73,1a88.83,88.83,0,0,0-10.67-5.46Z"/><path d="M394.74,1929.77c-.14.17-.25.36-.39.53,2.66,2.77,7.73,5.24,12,6.33a4.15,4.15,0,0,0-.87,1.09,34.9,34.9,0,0,1-7.08-3v.92h-9.69v-.87a36.79,36.79,0,0,1-7.06,3.11,13.3,13.3,0,0,0-.87-1.09c5-1.43,10.05-4,12.71-7.45Zm-10.44,7.59h18.42v6.72H384.29Zm1.23,5.66h7.34v-4.59h-7.34Zm.48,2.63h15.37v8.93H400v-1H387.32v1.06H386Zm1.32,1.09v2.35H400v-2.35Zm12.68,5.8v-2.35H387.32v2.35ZM388.66,1939a11.52,11.52,0,0,1,2,3.28l-1.09.48a11.83,11.83,0,0,0-1.93-3.33Zm9.49-4.4a21.78,21.78,0,0,1-4.59-3.42,20.69,20.69,0,0,1-4.42,3.42Zm3.3,3.86h-7.39V1943h7.39Zm-5.12,3.89a37.67,37.67,0,0,0,1.85-3.47l1.18.5a34.77,34.77,0,0,1-2,3.39Z"/><path d="M418.54,1944.7l-1.26,1.06a44.22,44.22,0,0,0-6.27-6.27l1.15-1.06A51.74,51.74,0,0,1,418.54,1944.7Z"/><path d="M448.47,1952.45v1.32H423.74v-1.32h11.68v-8h-8.76v-1.32h8.76v-6.86h-7.08a22,22,0,0,1-3.14,4.9c-.25-.2-.87-.59-1.2-.78,2.35-2.55,4.14-6.44,5.26-10.5l1.37.28a44.47,44.47,0,0,1-1.71,4.82h6.5v-5.66h1.37V1935h10.42v1.29H436.79v6.86h9.44v1.32h-9.44v8Z"/><path d="M453.48,1937.81c-.28.42-.56.81-.87,1.2a4.74,4.74,0,0,0-1-.81,24.57,24.57,0,0,0,4.34-8.88l1.32.2c-.22.73-.48,1.51-.76,2.32h4.09l.25-.05.87.53a32.61,32.61,0,0,1-2.16,4h3.92v10.56h-10Zm-1.9,16.32c1.37-1.23,1.93-3.53,2.18-5.71l1.06.25c-.28,2.3-.81,4.71-2.27,6ZM456,1933a27.89,27.89,0,0,1-1.6,3.33h3.78a23.44,23.44,0,0,0,1.76-3.33Zm1.82,8v-3.47h-3.16V1941Zm-3.16,1.15v3.53h3.16v-3.53Zm2.58,6.24a19.85,19.85,0,0,1,.48,5l-1.09.14a21,21,0,0,0-.39-5Zm2.52-.08a20.11,20.11,0,0,1,1.4,4.7l-1,.25a19.78,19.78,0,0,0-1.34-4.71Zm2.46-10.78h-3.28V1941h3.28Zm0,4.62h-3.28v3.53h3.28Zm.25,5.66a26.7,26.7,0,0,1,2.46,5l-1,.39a29,29,0,0,0-2.38-5.07Zm14.64-.48h-6.24v7.34h-1.32v-7.34h-5.68v-1.23h5.68v-4.65h-4.68v-1.23h4.68v-4.34h-5.29v-1.23h3a24.1,24.1,0,0,0-2-4.84l1.09-.42a24.63,24.63,0,0,1,2.07,4.84l-1,.42h5.24l-1-.34a35.33,35.33,0,0,0,2.3-5l1.32.45a49.6,49.6,0,0,1-2.49,4.9h3.67v1.23h-5.57v4.34h5.07v1.23h-5.07v4.65h6.24Z"/><path d="M497.41,1940.22c-5.63,0-9.07-.62-11.23-3.84a15.67,15.67,0,0,1-5.66,5.74,7.48,7.48,0,0,0-.7-1.32,13.17,13.17,0,0,0,6.44-7.9l1.29.31a14.85,14.85,0,0,1-.81,2,7.19,7.19,0,0,0,5.24,3.33v-6.66H481.56v-1.18H503l.22-.08,1,.34a35.47,35.47,0,0,1-2.16,4.48l-1.15-.31a22.12,22.12,0,0,0,1.51-3.25H493.3v2.8h6.89v1.12H493.3v2.94a36.36,36.36,0,0,0,4.09.2c.78,0,6.72,0,7.84,0a4.14,4.14,0,0,0-.53,1.26Zm.9,8.88c2.24,1.51,5.24,3.75,6.75,5l-.9.9c-.7-.59-1.62-1.37-2.63-2.16-7.56.36-15.54.7-20.72.92l-.14-1.4c2.91-.06,6.92-.17,11.34-.34v-3.42h-8.82V1943H492v-2h1.32v2h8.88v5.68h-8.88V1952l6.75-.25c-.92-.7-1.85-1.34-2.66-1.93Zm-6.3-1.6v-3.39h-7.53v3.39Zm1.32-3.39v3.39h7.53v-3.39Z"/><path d="M509.48,1942.77H519v11.68h-1.34v-1.32h-6.86v1.6h-1.29Zm1.29,1.29v7.78h6.86v-7.78Zm17.56-4.65H513.68v-8.82h14.64Zm-1.34-7.5H515v6.22h12Zm5.6,10.86v11.76h-1.32v-1.4h-7.5v1.6h-1.32v-12Zm-1.32,9.07v-7.78h-7.5v7.78Z"/><path d="M541.34,1941.39a24.79,24.79,0,0,0-4.9-3.28l.76-.92a24.06,24.06,0,0,1,4.93,3.11Zm1.43,3.75c-1.23,3-2.94,6.64-4.31,9.18l-1.2-.84a86.7,86.7,0,0,0,4.51-9.13Zm-.25-11.14a22.59,22.59,0,0,0-4.73-3.36l.81-.92a22.4,22.4,0,0,1,4.73,3.25Zm17.33,19.1c.84,0,1-.59,1.09-4.37a3.51,3.51,0,0,0,1.2.62c-.14,4-.48,5-2.16,5h-3.25c-1.71,0-2.18-.42-2.18-2.13v-9.86h-4.37c-.39,6.44-1.48,10.3-6.92,12.4a3.72,3.72,0,0,0-.84-1c5.15-1.88,6.1-5.4,6.41-11.37h-5.29v-1.32h8.6v-5.6h-4.73a20,20,0,0,1-2.21,4.31c-.25-.17-.87-.53-1.2-.7a23.92,23.92,0,0,0,3.64-9.24l1.34.25c-.31,1.4-.67,2.8-1.09,4.09h4.26v-4.79h1.34v4.79h7.31v1.29H553.5v5.6h8.34v1.32h-6v9.86c0,.73.14.87,1,.87Z"/><path d="M571.08,1943a24.2,24.2,0,0,1-2.52,7.14,25.56,25.56,0,0,1,2.69,1.71c2,1.2,4.51,1.43,7.87,1.43,3.84,0,8.12-.25,11.26-.5a4.2,4.2,0,0,0-.42,1.43c-2,.11-7.5.28-10.86.28-3.67,0-6.19-.31-8.29-1.57-1.12-.67-2.18-1.65-2.86-1.65s-1.51,1.65-2.41,3.53l-1-1.09a14.7,14.7,0,0,1,2.32-3.16,19.47,19.47,0,0,0,2.69-6.66h-3.78a67.42,67.42,0,0,0,2.83-6.38H565v-1.26h5.52c-.84,2.07-1.9,4.54-2.77,6.44H570l.22-.06Zm-2.52-8.46c-.45-1.2-1.29-3.19-1.93-4.65l1.18-.34c.67,1.48,1.54,3.36,2,4.54Zm21.33,12.24H571.5v-1.15h5.18v-3.08h-4.06v-1.15h4.06v-2.35H578v2.35h5.35v-2.35h1.26v2.35h4.17v1.15h-4.17v3.08h5.32Zm-10.36-10.16a6.27,6.27,0,0,0-.31,1.06c-5.57,1-6.24,1.2-6.66,1.46a6,6,0,0,0-.59-1.2c.31-.14.67-.45.67-1.46v-6h7.25v4.37h-6.08v2.66Zm-.39,10.92a27.66,27.66,0,0,1-5.88,4,6.86,6.86,0,0,0-1.06-.9,21.18,21.18,0,0,0,5.74-3.53Zm-5.32-16v2.24h4.84v-2.24Zm4.14,14.05h5.35v-3.08H578Zm5.49-7.17c-1.51,0-1.9-.53-1.9-2.1v-5.82h7.39V1935h-6.22v1.48c0,.78.14,1,.78,1h4.06a10.34,10.34,0,0,0,1.68-.11c0,.34.08.78.14,1.06a9.55,9.55,0,0,1-1.76.11Zm4.79,13a29.61,29.61,0,0,0-6-3.7l.87-.7a31.48,31.48,0,0,1,6.27,3.67Zm-5.52-19.91v2.24h5v-2.24Z"/><path d="M601.6,1929.86a44.09,44.09,0,0,1-3,6.1v18.73h-1.37v-16.58a31.08,31.08,0,0,1-3.36,4.09A6.36,6.36,0,0,0,593,1941a33.09,33.09,0,0,0,7.28-11.51Zm7.76,5.54v4.7h8.51v1.26h-8.51v4.9h8.9v1.29h-8.9v7.17H608V1935.4h-2.44a31.43,31.43,0,0,1-4.17,6.1c-.22-.2-.78-.67-1.06-.87a31.52,31.52,0,0,0,6.3-10.89l1.26.34a39.65,39.65,0,0,1-1.71,4h12.24v1.29Z"/><path d="M631.5,1950.13a27.13,27.13,0,0,1-8.85,3.53,4,4,0,0,0-.9-1c3-.53,6.78-1.71,8.68-3Zm14.67-3.45v1.21H634.64v6.86h-1.32v-6.86h-11.4v-1.21h11.4v-2.58h-8.74V1943h8.74v-2.52H623.19v-1.15h6.61a13.73,13.73,0,0,0-1.65-3.16l1.2-.34a12.93,12.93,0,0,1,1.74,3.19l-1,.31H638l-1-.31a23.08,23.08,0,0,0,1.82-3.22l1.32.39a30.7,30.7,0,0,1-2,3.14h6.89v1.15H634.64V1943h9v1.15h-9v2.58Zm-.11-10.92h-24v-1.18h8.6v-5.26H632v5.26H636v-5.26h1.29v5.26h8.74ZM627,1934.45a20.11,20.11,0,0,0-2.49-4.31l1.15-.39a18.83,18.83,0,0,1,2.55,4.23Zm10.53,15a89.75,89.75,0,0,1,8.62,3.11l-.7,1c-2-.92-5.74-2.32-8.62-3.28Zm6.36-19.29a37.15,37.15,0,0,1-2.6,4.4l-1.09-.42a30.16,30.16,0,0,0,2.35-4.4Z"/><path d="M659,1942.82l-3.72,1.2v8.88c0,1-.25,1.34-.84,1.57a11.89,11.89,0,0,1-3.42.25,6.53,6.53,0,0,0-.5-1.26c1.37,0,2.58,0,2.91,0s.53-.11.53-.53v-8.46c-1.54.48-3,1-4.23,1.34l-.48-1.32c1.26-.36,2.91-.87,4.7-1.4v-6.55H649.7v-1.32H654v-5.85h1.32v5.85h3.47v1.32h-3.47v6.1c1.15-.36,2.35-.73,3.53-1.12Zm1.79,0H673.7v11.79h-1.32v-1.2h-10.3v1.34h-1.29Zm3-2.8c-2.24,0-2.94-.67-2.94-2.66v-7.81h1.34v3.58h11.56v1.2H662.22v3.05c0,1.06.34,1.43,1.57,1.43h8a21.35,21.35,0,0,0,2.8-.14,10.74,10.74,0,0,0,.2,1.2,18.39,18.39,0,0,1-2.94.14Zm-1.74,4v3.42h10.3V1944Zm10.3,8.18v-3.58h-10.3v3.58Z"/><path d="M691.67,1943.33s0,.5-.06.7c-.5,6.47-1,8.93-1.9,9.83a2.4,2.4,0,0,1-1.9.67,37.43,37.43,0,0,1-4.45-.11,2.7,2.7,0,0,0-.48-1.34c2,.2,3.86.2,4.48.2s1,0,1.23-.31c.73-.62,1.18-2.86,1.62-8.37H680.7l-1.37,0c.5-2,1.12-5.15,1.48-7.53h9.46v-5.24h-10.7v-1.29h12v7.81H682c-.34,1.68-.64,3.5-1,5Zm8.57-13.75v25.14H698.9v-25.14Z"/><path d="M711.86,1942a18.56,18.56,0,0,1,5.6-13.24l1.09.67a17.51,17.51,0,0,0,0,25.14l-1.09.67A18.56,18.56,0,0,1,711.86,1942Z"/><path d="M745.55,1949.88H733.73v4.87h-1.34v-4.87H720.82v-1.26h11.56v-2.86h-8V1936H742v9.8h-8.26v2.86h11.82ZM727.1,1932.8H721v-1.26h6.13v-2.18h1.34v2.18h3.95v1.26h-3.95v2.55H727.1Zm-1.43,7.48h15v-3.14h-15Zm0,4.34h15v-3.22h-15Zm12.26-11.82h-4v-1.26h4v-2.16h1.32v2.16h6.16v1.26h-6.16v2.58h-1.32Z"/><path d="M773.85,1946.32v1.2H762v7.2h-1.32v-7.2H749v-1.2h11.68v-2.55H762v2.55Zm-2.21-1.6a76.52,76.52,0,0,0-9.8-2.55c-3,1.23-6.89,1.9-11.84,2.24a5.28,5.28,0,0,0-.56-1.2,44,44,0,0,0,10.11-1.51c-2.07-.42-4.26-.76-6.47-1.12.92-.84,2-1.88,3.05-3h-6.75v-1.18h7.81a26,26,0,0,0,2.35-3l1.37.48a29.83,29.83,0,0,1-2,2.52h7.81a8.64,8.64,0,0,0,.92-2.07l1.29.39a8.73,8.73,0,0,1-.67,1.68h5.29v1.18h-6a11.2,11.2,0,0,1-4.12,3.78,86.55,86.55,0,0,1,9.52,2.46Zm-13.75,4.2a23.87,23.87,0,0,1-7.2,4.76,7.44,7.44,0,0,0-1.06-1,19.59,19.59,0,0,0,7-4.2Zm-6.78-13.47h-1.26v-3.87h11.37a18,18,0,0,0-1.32-1.93l1.23-.36a16.73,16.73,0,0,1,1.57,2.29h10.44v3.87h-1.29v-2.66H751.12Zm6.75,2.13c-.84.84-1.62,1.65-2.38,2.32,2,.31,4.09.67,6,1.06a11.4,11.4,0,0,0,4.48-3.39Zm7.7,10.67a40.26,40.26,0,0,1,7.53,4.37l-.9,1.06a37.94,37.94,0,0,0-7.48-4.54Z"/><path d="M782.7,1942a18.56,18.56,0,0,1-5.6,13.24l-1.09-.67a17.52,17.52,0,0,0,0-25.14l1.09-.67A18.56,18.56,0,0,1,782.7,1942Z"/><path d="M823.5,1940a16.46,16.46,0,0,1-5.43,4.06,3.77,3.77,0,0,0-.84-.92,14.8,14.8,0,0,0,5.94-4.31H818.6v-4.54h4.9v-1.74h-5.82v-1.12h5.82v-2h1.23v2h5.57v1.12h-5.57v1.74h4.68v4.54h-4.68V1944H823.5Zm7.11,12.74h12v1.23h-25.2v-1.23h4.84v-4.9h1.32v4.9h5.71v-6.64h-9.91v-1.2h21.39v1.2H830.61v2.66h8.57v1.15h-8.57Zm-10.84-15h3.72v-2.46h-3.72Zm5-2.46v2.46h3.47v-2.46Zm.64,3.89a17.83,17.83,0,0,1,4.12,2.49l-.67.9a20.72,20.72,0,0,0-4.06-2.63Zm15.37-5.32a14.87,14.87,0,0,1-3.33,6,14.48,14.48,0,0,0,5.24,3.25,5.81,5.81,0,0,0-.81,1.09,15.46,15.46,0,0,1-5.26-3.5,18.76,18.76,0,0,1-5.8,3.42c-.17-.25-.59-.78-.81-1a15.44,15.44,0,0,0,5.8-3.28,17.28,17.28,0,0,1-2.86-4.65,15.41,15.41,0,0,1-1.9,2.41,10.4,10.4,0,0,0-1-.87,16.5,16.5,0,0,0,4.09-7.39l1.26.28a21.55,21.55,0,0,1-1.12,3h8.26v1.2Zm-7.06,0-.08.11a15.39,15.39,0,0,0,3,5,13,13,0,0,0,2.86-5.15Z"/><path d="M854.24,1948.76l-8.43,2.88-.36-1.37,4-1.26v-8.2H846v-1.26h3.42v-6.83h-3.7v-1.29h8.37v1.29h-3.39v6.83h3.05v1.26h-3.05v7.76c1.06-.34,2.21-.7,3.3-1.09Zm16.91,3.75v1.26H853v-1.26h9V1948h-6.72v-1.26H862v-3.84H855.7v-12.18h14.06v12.18h-6.44v3.84h6.92V1948h-6.92v4.51ZM857,1936.16h5.1v-4.23H857Zm0,5.52h5.1v-4.31H857Zm11.51-9.74h-5.21v4.23h5.21Zm0,5.43h-5.21v4.31h5.21Z"/><path d="M883.28,1944.7l-1.26,1.06a44.22,44.22,0,0,0-6.27-6.27l1.15-1.06A51.71,51.71,0,0,1,883.28,1944.7Z"/><path d="M911.53,1947.16a41.19,41.19,0,0,1-5.57,3.11,18.87,18.87,0,0,0,7.48,3,4.79,4.79,0,0,0-.81,1.12c-5.54-1.15-9.69-4-11.79-8.4a26.67,26.67,0,0,1-5.49,3.13v3.67l7.2-1.57c0,.36,0,.81,0,1-7.78,1.9-8.57,2.13-9.07,2.44a4,4,0,0,0-.59-1.15,2,2,0,0,0,1.15-1.85v-2a39,39,0,0,1-5.15,1.65,5.93,5.93,0,0,0-.84-1,33.82,33.82,0,0,0,11-4.37H888.51v-1.18h12.18a18.44,18.44,0,0,0-1-1.93l1.26-.34a18.27,18.27,0,0,1,1.26,2.27h11v1.18H902.09a12.08,12.08,0,0,0,3,3.67,40.18,40.18,0,0,0,5.4-3.08ZM895,1935.74h-6.64v-1.09H895v-2.1h-3.75a12.26,12.26,0,0,1-1.15,1.9,4.43,4.43,0,0,0-1.09-.56,13.23,13.23,0,0,0,2.27-4.42l1.18.28c-.2.59-.45,1.15-.67,1.74H895v-2.1h1.23v2.1h5.12v1.06h-5.12v2.1h6.24v1.09h-6.24v1.76h5.32v3.58c0,.62-.08.92-.59,1.12a8.54,8.54,0,0,1-2.6.2,3.78,3.78,0,0,0-.39-1c1.06,0,1.79,0,2.07,0s.34-.11.34-.34v-2.52h-4.14v4.82H895v-4.82h-3.84v4H890v-5.07h5Zm11.23,4.2H905v-9.13h1.26Zm5.21,1.54c0,.9-.22,1.23-.87,1.46a17.31,17.31,0,0,1-3.86.22,4.83,4.83,0,0,0-.5-1.2c1.71.06,3.05,0,3.47,0s.53-.11.53-.48v-11.82h1.23Z"/><path d="M940.12,1943.8a45.64,45.64,0,0,1-5.6,4.28,17.28,17.28,0,0,0,7.42,4.37,7.18,7.18,0,0,0-.9,1.18,19.34,19.34,0,0,1-12-12h-.22a23.59,23.59,0,0,1-4.7,3.86v7l7.28-2.27a6.56,6.56,0,0,0,.2,1.15c-7.73,2.55-8.57,2.86-9.1,3.25a6.83,6.83,0,0,0-.62-1.29,1.55,1.55,0,0,0,.9-1.6v-5.4a35.22,35.22,0,0,1-5.43,2.6,8.7,8.7,0,0,0-.9-1.12,30,30,0,0,0,10.67-6.22h-10v-1.23h11.28v-3.05h-8.79v-1.18h8.79v-2.88H918.17v-1.23h10.22v-2.74h1.32v2.74h10.53v1.23H929.7v2.88h9.18v1.18H929.7v3.05h11.37v1.23H930.35a18.28,18.28,0,0,0,3.42,5.63,46.56,46.56,0,0,0,5.24-4.23Z"/><path d="M969.55,1929.1l.76.76L945.19,1955l-.76-.76Z"/><path d="M981.14,1947.81v5l6-1.37a7,7,0,0,0,0,1.09c-6.83,1.71-7.62,1.9-8.06,2.24a3.93,3.93,0,0,0-.56-1.21,1.9,1.9,0,0,0,1.26-1.76v-4h-3.11a15.11,15.11,0,0,1-2.63,7,4.39,4.39,0,0,0-1.12-.76c2.3-2.91,2.69-6.89,2.69-9.74v-3.56h21.78v1.15h-20.5v1.82h19v1.09h-19c0,.59-.06,1.21-.11,1.85H998v1.12H986.26a10.27,10.27,0,0,0,3,2.91,47.67,47.67,0,0,0,5.71-2.63l1,.84a39.09,39.09,0,0,1-5.68,2.38,21.48,21.48,0,0,0,8,2.18,4.8,4.8,0,0,0-.84,1.23c-6-.76-10.36-3.11-12.43-6.92Zm14.48-8.68H976v-7.67h5.91v-2.07h1.32v2.07h4.93v-2.07h1.32v2.07h6.19Zm-18.4-4.4h4.65v-2.21h-4.65Zm0,3.33h4.65v-2.3h-4.65Zm6-5.54v2.21h4.93v-2.21Zm0,3.25v2.3h4.93v-2.3Zm11.14-3.25h-4.9v2.21h4.9Zm0,3.25h-4.9v2.3h4.9Z"/><path d="M1009.08,1929.83a43.2,43.2,0,0,1-3,6.16v18.68h-1.29V1938a31.24,31.24,0,0,1-3.42,4.2,9,9,0,0,0-.81-1.2,32.9,32.9,0,0,0,7.25-11.51Zm13.36,17.36h4.2v1.18h-4.2V1953c0,.87-.2,1.29-1,1.48a19.56,19.56,0,0,1-4.28.2,8.55,8.55,0,0,0-.48-1.23c2,.06,3.36.06,3.86,0s.56-.14.56-.5v-4.65h-13.24v-1.18h13.24V1945c-4.65.14-9.24.31-12.57.36l-.14-1.2c2.21,0,5.12-.06,8.29-.11V1942h-6.8v-7.28h6.8v-1.9h-8v-1.15h8v-2.07H1018v2.07h8.29v1.15H1018v1.9h7V1942h-2.72a26.58,26.58,0,0,1,4.4,3.58l-1,.73a13.6,13.6,0,0,0-1.43-1.43v.06l-1.82.06Zm-11.26-9.35h5.54v-2.13h-5.54Zm5.54,3.11v-2.13h-5.54v2.13Zm-4.56,7.81a22.8,22.8,0,0,1,3.7,3.61l-1,.81a22.6,22.6,0,0,0-3.64-3.78Zm5.88-13v2.13h5.71v-2.13Zm5.71,3.11H1018v2.13h5.71ZM1018,1944c1.65-.06,3.36-.08,5.07-.14-.7-.56-1.43-1.09-2.13-1.57l.53-.34H1018Z"/><path d="M1037.42,1936.8a27.12,27.12,0,0,1-1.88,11,29.8,29.8,0,0,1,3.28,3.44l-.84,1.06a32.78,32.78,0,0,0-3-3.33,18.69,18.69,0,0,1-4.73,5.68,3.64,3.64,0,0,0-.92-.81,18.37,18.37,0,0,0,4.73-5.74c-1.32-1.2-2.72-2.41-4-3.42a73.86,73.86,0,0,0,1.85-7.73l-2.27.14-.17-1.32c.78,0,1.68-.06,2.69-.11.39-2.18.73-4.37.92-6.27l1.2.06c-.22,1.88-.56,4-.92,6.16l2.91-.17v-2.13h1.2v2.07l1.6-.08v1.2l-1.6.11Zm-4.4.08c-.5,2.74-1.12,5.4-1.65,7.42,1.06.81,2.16,1.71,3.19,2.63a25.55,25.55,0,0,0,1.65-10.11v-.14Zm11.51,11.12a14.48,14.48,0,0,1-4.87,6.24,3.87,3.87,0,0,0-.92-1,12.8,12.8,0,0,0,4.73-5.66Zm2.91-1.48v8.21h-1.32v-8.21h-7v-1.2h7v-3h-4.45v-8.6h-2.8v-1.23h2.8v-3.16h1.26v3.16h7.64v-3.16h1.29v3.16h2.72v1.23h-2.72v8.6h-4.42v3h7.06v1.2Zm-4.51-12.77v3.11h7.64v-3.11Zm0,7.42h7.64V1938h-7.64Zm7.14,6.47a51.29,51.29,0,0,1,4.59,5.94l-1.06.56a59.17,59.17,0,0,0-4.54-6Z"/>
<!--落實禽流感防疫，入禽場莫穿金戴銀，老鼠、野鳥要隔離-->
	<a xlink:href="https://www.agriharvest.tw/theme_data.php?theme=article&amp;sub_theme=article&amp;id=91" target="_blank">
		<text class="cls-2" transform="translate(655 278)">注意生物安全措施</text>
	</a>



<!--【一張圖看懂】混用蛋籃如何混出防疫漏洞-->
	<a xlink:href="https://www.agriharvest.tw/theme_data.php?theme=article&amp;sub_theme=article&amp;id=113" target="_blank">
		<text class="cls-2" transform="translate(505.01 409.62)">生鮮禽蛋採一次性包<tspan class="cls-3" x="290.88" y="0">材，</tspan><tspan x="0" y="45">塑膠物流箱回收時應確實消</tspan><tspan class="cls-3" x="387.84" y="45">毒，</tspan><tspan x="0" y="90">避免禽流感病毒在禽場間傳播</tspan></text>
	</a>

	<text class="cls-8" transform="translate(789.99 817.47)">因蛋殼保護層也洗<tspan class="cls-9"><tspan x="0" y="45">除，</tspan><tspan class="cls-10" x="48.64" y="45">處理不</tspan><tspan class="cls-3" x="145.6" y="45">當，</tspan><tspan class="cls-4" x="194.24" y="45">洗選</tspan></tspan><tspan x="0" y="90">蛋可能再遭洗潔劑</tspan><tspan x="0" y="135">或微生物污染</tspan></text>




	<text class="cls-8" transform="translate(789.99 1055.29)">洗選蛋在運輸及販<tspan x="0" y="45">售</tspan><tspan class="cls-3" x="32.32" y="45">時，</tspan><tspan class="cls-11" x="80.96" y="45">常溫應在</tspan><tspan x="0" y="90">25°C以</tspan><tspan class="cls-3" x="99.07" y="90">下；</tspan><tspan class="cls-4" x="147.71" y="90">冷藏應</tspan><tspan x="0" y="135">在 7°C以</tspan><tspan class="cls-3" x="121.38" y="135">下，</tspan><tspan class="cls-11" x="170.01" y="135">凍結點</tspan><tspan x="0" y="180">-0.5°C以上</tspan></text>


	<g id="註"><path d="M541.76,118.28h5.79v1.15H543.2v28.16h4.35v1.15h-5.79Z"/><path d="M550.43,122H562v1.38H550.43Zm1.15,8.83h9.66v1.34h-9.66Zm9.6-4.35v1.31H552.1v-1.31Zm-.1,17.12H553.7v1.66h-1.44V135h8.83Zm-7.39-7.26v6h6v-6Zm2.85-14.81a18.06,18.06,0,0,0-2.11-4l1.15-.58a15.89,15.89,0,0,1,2.21,3.9Zm22.65,21.28v1.47h-17v-1.47h7.42v-9.22h-6.27v-1.47h6.27v-7.46h-6.85v-1.47h15.74v1.47H571.2v7.46h6.66v1.47H571.2v9.22Zm-8.67-20.13a23,23,0,0,0-3.39-5.09l1.22-.67a24.28,24.28,0,0,1,3.46,5Z"/><path d="M581.86,147.59h4.35V119.43h-4.35v-1.15h5.79v30.46h-5.79Z"/><path d="M604.45,121.51v7.9c0,4.8-.38,11.68-3,16.45a4.75,4.75,0,0,0-1.28-.86c2.56-4.61,2.82-11,2.82-15.58v-9.34h12.83a16.75,16.75,0,0,0-1.73-2.78l1.41-.51a16.34,16.34,0,0,1,2.11,3.3h11.58v1.44Zm15.87,12.16c1.38,6.18,3.94,10.18,6.37,10.18.8,0,1.12-1.44,1.28-4.8a3.52,3.52,0,0,0,1.28.67c-.29,4.29-.9,5.6-2.66,5.6-3.36,0-6.27-4.74-7.78-11.65h-8.54v6.78l6.69-1.63a8.58,8.58,0,0,0,0,1.31c-7.07,1.82-7.94,2.11-8.45,2.43a11.09,11.09,0,0,0-.64-1.41,1.57,1.57,0,0,0,.9-1.66v-14.3a127.61,127.61,0,0,0,16.48-1.66l1.25,1.15c-2,.42-4.51.8-7.17,1.09a40.76,40.76,0,0,0,.7,6.5h8.26v1.41Zm-1.76-1.41a55,55,0,0,1-.74-6.4c-2.5.26-5.12.42-7.55.54v5.86Zm-5.44,10.85h8.45v1.34h-8.45Z"/><path d="M635.55,137.16a51.78,51.78,0,0,1-1.76,7.81c-.26-.13-1-.38-1.31-.51a35.08,35.08,0,0,0,1.7-7.55Zm6.33-1.25c-.1-.61-.22-1.31-.42-2.11-6.75,1.06-7.62,1.22-8.16,1.5a15.31,15.31,0,0,0-.54-1.57c.61-.1,1.31-.93,2.27-2.11a49.12,49.12,0,0,0,3-4.22c-3.9.48-4.54.64-5,.83a8.65,8.65,0,0,0-.51-1.54c.51-.1,1.09-.8,1.7-1.79a42.42,42.42,0,0,0,4.38-8.22l1.5.64a55.55,55.55,0,0,1-5.22,9.09l4-.42c.86-1.38,1.7-2.85,2.43-4.29l1.41.77a68.15,68.15,0,0,1-7.39,10.88l5.73-.8c-.35-1.22-.74-2.46-1.12-3.58l1.28-.26a40.92,40.92,0,0,1,1.92,6.82Zm-3.49,1a64.07,64.07,0,0,1,.86,6.88l-1.34.22a57.31,57.31,0,0,0-.8-6.91Zm2.75-.7a39.8,39.8,0,0,1,1.76,5.6l-1.25.38a39.91,39.91,0,0,0-1.7-5.7Zm10.14-1.7a15.17,15.17,0,0,1-7.49,9.73,7.52,7.52,0,0,0-1-1.09,13.64,13.64,0,0,0,6.69-7.58h-5v-1.38h5.57l.26-.06Zm9.54-1a45.93,45.93,0,0,1-4.64,4.13,14.65,14.65,0,0,0,5.57,5.38,6.06,6.06,0,0,0-1,1.18c-2.91-1.63-5.31-4.77-6.94-8.45v8c0,1-.22,1.41-.93,1.66a13.72,13.72,0,0,1-4.06.29,6.1,6.1,0,0,0-.54-1.44c1.7,0,3.1,0,3.52,0s.54-.13.54-.51V131.11h-6.59v-11h5.15a32.73,32.73,0,0,0,1.12-3.42l1.66.45c-.45,1-.86,2.08-1.28,3h7.46v11h-6v1.22a22.14,22.14,0,0,0,1.82,4.29,36.51,36.51,0,0,0,4-4Zm-13.63-8.58h11.14v-3.52H647.2Zm0,4.83h11.14v-3.55H647.2Z"/><path d="M688.73,124A35.35,35.35,0,0,1,680.67,137a31.76,31.76,0,0,0,13.47,7.14,9.21,9.21,0,0,0-1.09,1.41,32.43,32.43,0,0,1-13.54-7.42,39.16,39.16,0,0,1-13.63,7.55,8.5,8.5,0,0,0-1-1.47A35.86,35.86,0,0,0,678.37,137a37.71,37.71,0,0,1-8.16-13h-5v-1.5h28.57V124Zm-16.93,0a33.73,33.73,0,0,0,7.71,11.84A32.16,32.16,0,0,0,687,124Zm8-2a26.89,26.89,0,0,0-2.59-5l1.5-.45a26.62,26.62,0,0,1,2.72,4.93Z"/><path d="M725.41,135.5h-12.8v8.1c0,1.09-.32,1.57-1.18,1.82a20.83,20.83,0,0,1-5.09.29,6.89,6.89,0,0,0-.7-1.47c2.3,0,4.16,0,4.67,0s.7-.16.7-.61V135.5H698.14V134H711v-2.18a29.85,29.85,0,0,0,6.62-4.42H703.26v-1.47h15.9l.35-.06,1.09.77a33.25,33.25,0,0,1-8,5.79V134h12.8Zm-25.25-9.15h-1.5v-6.08h13a18.87,18.87,0,0,0-1.92-3.26l1.44-.51a16.26,16.26,0,0,1,2.24,3.78H725v6.08h-1.57v-4.61H700.16Z"/><path d="M758.27,120.59h-4v22.53c0,1.38-.38,2-1.41,2.27a33.84,33.84,0,0,1-6.37.29,9.34,9.34,0,0,0-.67-1.7c2.75.1,5.25.06,6,0s.86-.26.86-.93V120.59H730.08v-1.5h28.19Zm-23.2,17v2.59h-1.5V125.93h12.77v11.65Zm0-10.14v8.64h9.73v-8.64Z"/><path d="M761.73,145c1.31-1.28,1.86-3.65,2.11-5.92l1.18.29c-.29,2.4-.77,4.9-2.14,6.3Zm.45-8.93,6.17-.35v-3h-5.57v-1.34h5.57v-2.69h-5.18V118h12.06v10.69h-5.47v2.69h5.89v1.34h-5.89v2.94c2-.13,4.19-.26,6.34-.42l0,1.28c-5.06.38-10.24.8-13.79,1Zm2.33-8.67h3.94v-8.19h-3.94Zm1.73-6.72a23.35,23.35,0,0,1,1.09,5l-1.06.26a18.43,18.43,0,0,0-1-5.06ZM767.65,139a21.08,21.08,0,0,1,.93,5.5l-1.18.19a22.62,22.62,0,0,0-.9-5.54Zm2.94-.35a23.39,23.39,0,0,1,1.82,5.09l-1.22.26a21.35,21.35,0,0,0-1.7-5.06Zm3.3-19.45h-4.22v8.19h4.22Zm-3.39,6.69a52.27,52.27,0,0,0,1.44-5.34L773,121a53,53,0,0,1-1.73,5.25Zm3,12.06a21.27,21.27,0,0,1,3,4.67l-1.12.54a21.32,21.32,0,0,0-2.88-4.74Zm10.27-12.61v6.56h5.89v13.6h-1.47V144h-9.34v1.66h-1.44V131.94h4.86V116.78h1.5v7.14H791v1.47Zm4.42,8h-9.34v9.18h9.34Z"/><path d="M801.47,132.36a27.65,27.65,0,0,1-2.88,8.16,29.19,29.19,0,0,1,3.07,2c2.3,1.38,5.15,1.63,9,1.63,4.38,0,9.28-.29,12.86-.58a4.8,4.8,0,0,0-.48,1.63c-2.24.13-8.58.32-12.42.32-4.19,0-7.07-.35-9.47-1.79-1.28-.77-2.5-1.89-3.26-1.89s-1.73,1.89-2.75,4L794,144.58A16.8,16.8,0,0,1,796.7,141a22.26,22.26,0,0,0,3.07-7.62h-4.32a77.08,77.08,0,0,0,3.23-7.3H794.5v-1.44h6.3c-1,2.37-2.18,5.18-3.17,7.36h2.66l.26-.06Zm-2.88-9.66c-.51-1.38-1.47-3.65-2.21-5.31l1.34-.38c.77,1.7,1.76,3.84,2.24,5.18Zm24.38,14H802v-1.31h5.92v-3.52h-4.64v-1.31h4.64v-2.69h1.47v2.69h6.11v-2.69h1.44v2.69h4.77v1.31H816.9v3.52H823Zm-11.84-11.62a7.22,7.22,0,0,0-.35,1.22c-6.37,1.18-7.13,1.38-7.62,1.66a6.87,6.87,0,0,0-.67-1.38c.35-.16.77-.51.77-1.66v-6.82h8.29v5h-6.94v3Zm-.45,12.48a31.65,31.65,0,0,1-6.72,4.61,7.9,7.9,0,0,0-1.22-1,24.18,24.18,0,0,0,6.56-4Zm-6.08-18.24v2.56h5.54v-2.56Zm4.74,16.06h6.11v-3.52h-6.11Zm6.27-8.19c-1.73,0-2.18-.61-2.18-2.4v-6.66h8.45v5h-7.1v1.7c0,.9.16,1.15.9,1.15h4.64a11.85,11.85,0,0,0,1.92-.13c0,.38.1.9.16,1.22a10.88,10.88,0,0,1-2,.13Zm5.47,14.91a33.81,33.81,0,0,0-6.85-4.22l1-.8a36,36,0,0,1,7.17,4.19Zm-6.3-22.75v2.56h5.7v-2.56Z"/><path d="M830,135.66c2.46-1.15,3.84-2.72,4-5.25a2.43,2.43,0,0,1-.67.1,1.81,1.81,0,0,1-2-2,1.85,1.85,0,0,1,2-2c1.5,0,2.3,1.28,2.3,3.26a7.29,7.29,0,0,1-5.06,6.94Z"/><path d="M856.35,136.46c-4.54,2.08-9.5,4.32-13,5.86l-.58-1.54c1.25-.51,2.78-1.18,4.48-1.92l-.45-20.54,1.54-.06.42,19.93c2.3-1,4.8-2.11,7.23-3.2Zm14.59,9.12a91.07,91.07,0,0,0-7.87-8.93c-2.56,4.06-6.24,7-11.71,9.15a11.54,11.54,0,0,0-1.25-1.28c11.55-4.13,15-11.94,16.54-26.27l1.63.16c-.83,7.1-2.08,12.57-4.42,16.89a100.71,100.71,0,0,1,8.38,9.15Zm-12.61-16.38a29.27,29.27,0,0,0-5-7.74l1.31-.64a30.06,30.06,0,0,1,5.09,7.62Z"/><path d="M901.89,120.14a44.75,44.75,0,0,1-11.29,8.45v14.78c0,1.28-.38,1.79-1.41,2s-3,.29-6.43.29a6.47,6.47,0,0,0-.64-1.57c2.94.1,5.28.06,6,0s.9-.22.9-.8V127.82a41.23,41.23,0,0,0,9.86-6.91h-22v-1.5h23.42l.35-.1Z"/><path d="M920.83,143.72c0,.93-.26,1.44-1,1.7a18.88,18.88,0,0,1-4.35.22,9.26,9.26,0,0,0-.54-1.34c1.86.06,3.42.06,3.87,0s.64-.16.64-.61v-6.43H911a19.21,19.21,0,0,1-2.43,8.45,4.29,4.29,0,0,0-1.18-.7c2.18-3.42,2.43-8.19,2.43-11.78v-6.85a15.33,15.33,0,0,1-1.18,1.57,6.56,6.56,0,0,0-1.28-.93,24.73,24.73,0,0,0,5.18-10.37l1.5.35c-.22.83-.51,1.66-.8,2.46h4.32l.26-.1.93.64a28.68,28.68,0,0,1-2.18,4.7h4.29Zm-8.09-22.91a37.49,37.49,0,0,1-1.89,3.94h4.22a27.82,27.82,0,0,0,1.79-3.94Zm-1.6,12.45c0,.83,0,1.76-.06,2.72h3.62v-4.42h-3.55Zm0-3h3.55v-4.22h-3.55Zm4.8,0h3.52v-4.22h-3.52Zm3.52,5.7v-4.42h-3.52V136Zm8.89-16.25c-.74,3.84-2.4,7.1-6.33,8.9a4.91,4.91,0,0,0-1-1c3.65-1.57,5.15-4.58,5.79-7.87H922v-1.41h13.69a6.78,6.78,0,0,1,0,.7c-.29,5.44-.58,7.42-1.25,8.13a1.89,1.89,0,0,1-1.63.64,25.1,25.1,0,0,1-3.36-.06,3.48,3.48,0,0,0-.38-1.31c1.44.1,2.78.13,3.23.13s.77,0,1-.29c.45-.48.7-2.14,1-6.53Zm8.29,19.39h-6.5v6.4h-1.5v-6.4h-7.2v-1.44h7.2v-4.51h-4.06a17.31,17.31,0,0,1-1.89,3.52,10.58,10.58,0,0,0-1.34-.7,18.48,18.48,0,0,0,3.14-7.39l1.47.29a27.68,27.68,0,0,1-.83,2.91h3.52v-3.52h1.5v3.52h6v1.38h-6v4.51h6.5Z"/><path d="M955,135a10.09,10.09,0,0,1-3.2,6c4.1,2.18,9.7,2.88,17.25,3.2a3.74,3.74,0,0,0-.67,1.54c-7.68-.42-13.57-1.28-17.79-3.78a26.63,26.63,0,0,1-9.6,3.74,10.28,10.28,0,0,0-.93-1.34,26.34,26.34,0,0,0,9.15-3.3,14.68,14.68,0,0,1-4.29-5l1.28-.51a13.15,13.15,0,0,0,4.22,4.64,8.69,8.69,0,0,0,3-5.15h-9.89V123.18h10.17V120H940.58v-1.44h27.55V120H955.29v3.17h10.85V135Zm-10-6.59h8.67v-3.9h-8.67Zm8.58,5.25c.06-.8.1-1.63.1-2.46v-1.47h-8.67v3.94Zm11-3.94h-9.31v1.47c0,.83,0,1.66-.1,2.46h9.41Zm-9.31-5.22v3.9h9.31v-3.9Z"/><path d="M995.58,120.2c-4,6.94-13.5,11.39-21.28,13.12a6.15,6.15,0,0,0-.8-1.41,42.59,42.59,0,0,0,11.42-4.06,31.61,31.61,0,0,0-5-4.1,34.52,34.52,0,0,1-4.16,2.37,5.85,5.85,0,0,0-1.09-1.09,27.1,27.1,0,0,0,10.91-8.35l1.73.38a26.65,26.65,0,0,1-2.24,2.56h9.18l.32-.1Zm5.06,10.91c-4.45,9.31-15.65,13.21-26.4,14.62a5.29,5.29,0,0,0-.67-1.5A47.59,47.59,0,0,0,989.15,140a44.4,44.4,0,0,0-5.15-4.58,38.41,38.41,0,0,1-5.5,2.75,5.62,5.62,0,0,0-1-1.12c6.4-2.5,11.1-6.24,13.34-9.47l1.76.35a26.65,26.65,0,0,1-2.24,2.56h9l.32-.1ZM983.58,121c-.77.67-1.57,1.31-2.46,2a25.59,25.59,0,0,1,5.12,4.1,22.91,22.91,0,0,0,7-6ZM988.8,132a28.57,28.57,0,0,1-3.55,2.69,58.61,58.61,0,0,1,5.34,4.58,19.52,19.52,0,0,0,7.74-7.26Z"/><path d="M1007.3,137.16a50.58,50.58,0,0,1-1.73,7.71c-.29-.13-.93-.38-1.28-.51a36.61,36.61,0,0,0,1.66-7.46Zm6.46-8.58a34.87,34.87,0,0,1,2.27,6.21l-1.31.45c-.1-.45-.26-1-.45-1.6-7.78,1.18-8.7,1.41-9.21,1.66a11.65,11.65,0,0,0-.51-1.47c.61-.1,1.31-1,2.24-2.14a48.26,48.26,0,0,0,3.1-4.29c-4,.48-4.64.64-5.06.8v0a11.67,11.67,0,0,0-.51-1.47c.51-.1,1.06-.83,1.76-1.79a51.58,51.58,0,0,0,4.48-8.26l1.41.64a51.87,51.87,0,0,1-5.34,9.09l4.16-.42c.83-1.41,1.7-2.91,2.43-4.42l1.38.74a70.14,70.14,0,0,1-7.52,11l6.82-1a27.62,27.62,0,0,0-1.38-3.46Zm-3.17,8.22c.38,2.21.77,5,.9,6.88l-1.31.26a57.61,57.61,0,0,0-.86-6.88Zm3.46-.67a47.31,47.31,0,0,1,2,6.21l-1.25.42a43.27,43.27,0,0,0-1.92-6.27Zm18.56-17.66v26.59h-1.5v-2h-11.93v2.27h-1.47V118.47Zm-13.44,1.5v10.14h5.12V120Zm0,21.63h5.12v-10h-5.12ZM1031.1,120h-5.37v10.14h5.38Zm0,21.63v-10h-5.37v10Z"/><path d="M1041.6,120.78a22.17,22.17,0,0,1-3.55,4.61c-.22-.29-.74-1-1.06-1.31a18.34,18.34,0,0,0,4.86-7.46l1.5.38a21.64,21.64,0,0,1-1,2.37h8.93v1.41Zm5.31,16.51a69.66,69.66,0,0,1,5,6.82l-1.31.74c-.45-.74-1.06-1.73-1.79-2.75-8.48,2.08-9.37,2.3-10,2.69a5.18,5.18,0,0,0-.77-1.34,2.24,2.24,0,0,0,1.18-2.11V126h11.33v10.3h-9.89v6.27l7.33-1.66c-.8-1.09-1.6-2.14-2.34-3Zm-6.24-9.92v3.2h8.42v-3.2Zm8.42,7.65v-3.17h-8.42V135Zm-3.46-9.63a16.32,16.32,0,0,0-2.34-3.23l1.09-.77a18.8,18.8,0,0,1,2.4,3.07Zm20.16-6v1.41H1054.4a18.55,18.55,0,0,1-2.91,4.9,8.65,8.65,0,0,0-1.28-1.06,18.38,18.38,0,0,0,4-7.94l1.54.32c-.22.8-.45,1.6-.74,2.37Zm-1.57,20.45c0,1-.22,1.5-1.06,1.79a22.52,22.52,0,0,1-5.06.29,5.21,5.21,0,0,0-.58-1.47c2.24,0,4,0,4.54,0s.67-.16.67-.64V127.46h-7.84V145.7h-1.47V126h10.78Zm-6.4-18.49a14.61,14.61,0,0,1,2.69,3.17l-1.12.86a20.17,20.17,0,0,0-2.62-3.26Z"/></g>

<!--戴奧辛事件中提供蛋品流向線索，農委會強化散裝雞蛋溯源標示宣導-->
	<a xlink:href="https://www.agriharvest.tw/theme_data.php?theme=article&amp;sub_theme=article&amp;id=642" target="_blank">
		<text class="cls-2" transform="translate(44.74 1572)">散蛋容器外箱須貼<tspan x="0" y="45">雞蛋溯源標籤貼紙</tspan></text>
	</a>

	<rect class="cls-12" x="366.09" y="1507.48" width="50" height="162.82"/><g id="箭頭"><line x1="540.3" y1="309.23" x2="330.6" y2="571.2"/><polygon class="cls-13" points="539.06 308.24 343.6 552.42 334.56 545.19 330.6 571.2 355.1 561.63 346.07 554.41 541.54 310.22 539.06 308.24"/><polygon class="cls-13" points="329.35 665.71 524.57 911.01 515.52 918.22 540 927.86 536.1 901.84 527.05 909.04 331.83 663.74 329.35 665.71"/><polygon class="cls-13" points="748.16 664.05 552.96 909.05 543.91 901.84 540 927.86 564.49 918.23 555.44 911.02 750.65 666.03 748.16 664.05"/><polygon class="cls-13" points="425 620.13 632.22 620.13 632.22 631.7 655 618.54 632.22 605.39 632.22 616.96 425 616.96 425 620.13"/><polygon class="cls-13" points="538.91 1085.84 346.11 1266.93 338.19 1258.5 330.59 1283.69 356.2 1277.68 348.29 1269.24 541.09 1088.16 538.91 1085.84"/><polygon class="cls-13" points="538.91 1088.16 731.71 1269.3 723.79 1277.73 749.4 1283.74 741.81 1258.56 733.89 1266.99 541.09 1085.84 538.91 1088.16"/><polygon class="cls-13" points="329.35 1508.47 524.56 1753.47 515.51 1760.67 540 1770.3 536.09 1744.28 527.04 1751.49 331.83 1506.49 329.35 1508.47"/><polygon class="cls-13" points="748.16 1506.49 552.96 1751.49 543.91 1744.28 540 1770.3 564.49 1760.67 555.44 1753.47 750.65 1508.47 748.16 1506.49"/><polygon class="cls-13" points="757.84 665.04 757.84 1260.96 746.27 1260.96 759.42 1283.74 772.58 1260.96 761.01 1260.96 761.01 665.04 757.84 665.04"/><path class="cls-13" d="M445.6,262.77l-173.78-.18-86.89-.09-43.44,0-22.25,0h-9.7c-.06,0-.15,0-.12.07v820.64a1.57,1.57,0,0,0,0,.47H497.22v11.57l11.33-6.54L520,1082l-11.45-6.61-11.33-6.54v11.57H112.61a1.23,1.23,0,0,1,0-.37V265.64c0-.07,0-.05.1-.05h7.61l21.19,0,43.44,0,86.89.09,173.78.18Z"/><polygon class="cls-13" points="537.91 1020.5 537.91 1063.71 526.35 1063.71 539.5 1086.5 552.65 1063.71 541.09 1063.71 541.09 1020.5 537.91 1020.5"/></g><path d="M77,265c2.24,7,6.4,12.83,12.57,15.36a12.25,12.25,0,0,0-1.79,2.24C81.62,279.65,77.56,274,75,266.72c-1.54,6.14-5,12.29-12.77,15.84a6.86,6.86,0,0,0-1.79-2c7.94-3.46,11.14-9.6,12.45-15.65H61.11v-2.43H73.3a68.1,68.1,0,0,0,.48-9.09h2.56a74.28,74.28,0,0,1-.51,9.09H89V265Z"/><path d="M71.42,310.53c-.77-1.28-2.72-3.87-4.13-5.73A17.37,17.37,0,0,1,62,314.5a8.2,8.2,0,0,0-1.66-1.66c3.9-3.17,5-8,5.34-12.29H60.5v-2.18h5.25c0-.7,0-1.41,0-2v-3.17H61.18V291h4.61v-5H68v5h4.45v2.14H68v3.17c0,.64,0,1.34,0,2h5.09v2.18H67.9c-.06.58-.13,1.18-.19,1.79,1.25,1.34,4.61,5.41,5.34,6.43ZM87,312.26c.58,0,.74-.32.8-2.56a5.91,5.91,0,0,0,2,.86c-.22,3-.86,3.81-2.56,3.81H84.57c-2.18,0-2.69-.64-2.69-2.88v-6.85h-2.3c-.61,4.83-2.27,8.32-7.65,10.27a6.15,6.15,0,0,0-1.34-1.79c4.83-1.6,6.21-4.54,6.72-8.48h-3V286.95H87.89v17.69H84.09v6.85c0,.67.1.77.77.77Zm-10.53-20h9.12v-3.1H76.47Zm0,5.15h9.12v-3.17H76.47Zm0,5.12h9.12v-3.17H76.47Z"/><path d="M69.37,335.55c-.42-1.06-1.31-3-2.14-4.64v16.32H65V331.9a36.94,36.94,0,0,1-3.62,8.7,11.24,11.24,0,0,0-1.22-2.3c1.86-2.62,3.74-7.71,4.67-11.9H61v-2.24H65V318h2.21v6.14h3.58v2.24H67.22v1.28c.83,1.28,3.07,5.18,3.62,6.14Zm10.4,4.64c-1.25,3.42-3.81,5.7-9.41,7.07a6.45,6.45,0,0,0-1.25-1.89c4.67-1.06,7-2.75,8.16-5.18H69.88v-2H78a20.86,20.86,0,0,0,.45-2.66H72V325.7H87.54v9.82H80.76c-.1.93-.26,1.82-.42,2.66h8.74v2Zm-5.31-17.5H70.52v-2h3.94v-2.59h2.18v2.59h2.56v2H76.63v2.24H74.46Zm-.26,7.07h11v-2.27h-11Zm0,4h11v-2.27h-11Zm6.94,6.66c2.78,1.47,6.56,3.68,8.51,5l-1.47,1.76a92.84,92.84,0,0,0-8.45-5.25ZM83,322.66H80.31v-2H83v-2.56h2.14v2.56h4.32v2H85.14v2.27H83Z"/><path d="M69.43,355.2a18.7,18.7,0,0,1-.9,2.21,7.56,7.56,0,0,0,5.28,3.17v-6.75H62.39v-2h24l.42-.1,1.66.51a34.71,34.71,0,0,1-2.53,5.34l-2-.54a27.75,27.75,0,0,0,1.5-3.2H76.15v2.56h7.58v1.76H76.15v2.72c1.09.1,2.34.13,3.65.13s8.1,0,9.79-.06a7.53,7.53,0,0,0-.86,2.18H79.8c-6,0-9.76-.64-12.16-4a18.39,18.39,0,0,1-6.27,6.37,10.84,10.84,0,0,0-1.15-2.27,14.86,14.86,0,0,0,7-8.58Zm12.51,17.57c2.56,1.76,5.79,4.19,7.49,5.66L87.89,380c-.74-.67-1.73-1.5-2.78-2.34-8.58.38-17.69.8-23.68,1l-.19-2.27c3.23,0,7.71-.13,12.64-.26v-3.3H64v-6.88h9.89v-2.08h2.3v2.08H86.1v6.88Zm-8.06-1.86v-3.2H66.26v3.2Zm2.3-3.2v3.2h7.55v-3.2Zm6.62,8.1c-.86-.61-1.76-1.28-2.53-1.82l1.44-1.22H76.18V376Z"/><path d="M77.27,383.62c-.19.19-.35.38-.58.58a45.45,45.45,0,0,0,12.7,5.06,8.29,8.29,0,0,0-.93,2,52.51,52.51,0,0,1-13.25-5.92,44.46,44.46,0,0,1-13.09,6,13.62,13.62,0,0,0-1.38-1.73c5.82-1.63,11.42-4.13,14.3-7Zm9.54,25.69c0,1.18-.26,1.76-1.15,2.11a15.68,15.68,0,0,1-4.58.35,8.65,8.65,0,0,0-.8-2l.7,0a21.84,21.84,0,0,0-1.34-2c-4.13.51-8.42,1-11.52,1.38l-.51-1.89L70,407.1c.54-1,1.09-2.27,1.63-3.52H65.43v8.25h-2.3v-8.25H61.56v-2h1.57v-1.28h2.3v1.28h7.1c.26-.67.51-1.28.77-1.89H65.37v-7.52h2.14V398H82.42v-5.76h2.24v7.52H75.57l-.8,1.89h12ZM67.51,390h6.56c-.35-.74-.77-1.54-1.15-2.18l2.14-.61A13.76,13.76,0,0,1,76.53,390h6v1.73H67.51Zm12.16,7.74a40.3,40.3,0,0,0-4.35-2.08,43.79,43.79,0,0,1-5.63,2.14,12.29,12.29,0,0,0-1.31-1.25,43.37,43.37,0,0,0,5-1.66c-1.38-.48-2.78-.9-4.06-1.22l1.28-1.18a46.17,46.17,0,0,1,4.83,1.5,17,17,0,0,0,3.42-2.18l1.63.58a16.54,16.54,0,0,1-3.3,2.27A36.4,36.4,0,0,1,81,396.42Zm1.57,12.13a20.32,20.32,0,0,0,2.66,0c.45,0,.58-.13.58-.48v-5.76H73.94c-.48,1.15-1,2.3-1.47,3.26l6-.64c-.51-.64-1-1.31-1.5-1.86l1.73-.77A54.12,54.12,0,0,1,82.9,409Z"/><path d="M70.52,433.76c-3.23,1.63-6.72,3.33-9.41,4.61L60.18,436c1.22-.51,2.72-1.15,4.35-1.89v-10H60.79v-2.24h3.74v-6.66h2.21v6.66H70.2v2.24H66.74v9L70,431.65Zm6-3.68a20,20,0,0,1-1.38,2.24H88.85a9.17,9.17,0,0,1-.1,1c-.48,6.59-1,9.09-1.89,10a2.59,2.59,0,0,1-1.79.8c-.7,0-1.89,0-3.17,0a4,4,0,0,0-.54-1.92c1.18.1,2.24.13,2.72.13s.74,0,1-.35c.54-.58,1-2.59,1.44-7.62H84c-1.28,3.81-3.78,7.93-6.53,10a7.28,7.28,0,0,0-1.7-1.38c2.59-1.73,4.93-5.18,6.24-8.64H78.9a24.17,24.17,0,0,1-7.78,8.64,6.28,6.28,0,0,0-1.57-1.47,21.11,21.11,0,0,0,7.2-7.17H73.53A22,22,0,0,1,69.37,438a10.4,10.4,0,0,0-1.63-1.47,18.12,18.12,0,0,0,6.34-6.4H69.59v-2h20v2Zm10.88-3.81H72.73V415.94H87.35Zm-2.21-8.54H74.9v2.53H85.14Zm0,4.19H74.9v2.56H85.14Z"/><path d="M89.21,451.94H85.27v21.18c0,1.73-.42,2.56-1.63,2.91s-3.49.45-6.62.45A12,12,0,0,0,76,474c2.56.13,5.18.1,5.92.06s.93-.26.93-.93V451.94h-22v-2.37H89.21ZM66.46,468.48V471h-2.3V456.61h13v11.87Zm0-9.57v7.3h8.35v-7.3Z"/><path d="M73.72,506.27c0,1.22-.26,1.76-1.12,2.11a12.42,12.42,0,0,1-4.19.38,7.93,7.93,0,0,0-.77-2c1.54.06,2.85,0,3.26,0s.54-.13.54-.54v-4.93c-2.11,1.25-4.29,2.5-6.08,3.52l-.83-1.92a12.48,12.48,0,0,1-2.3,6,7.32,7.32,0,0,0-1.63-1.66c1.82-2.43,2-5.79,2-8.51v-7.81h11.1Zm-2-24.32A43.79,43.79,0,0,1,75.86,489l-2,.93c-.26-.64-.61-1.37-1-2.18-8.67.7-9.79.83-10.53,1.18a15.51,15.51,0,0,0-.77-2.24,3.79,3.79,0,0,0,1.7-1.25,33.13,33.13,0,0,0,4.06-5.86l2.37.8a42.31,42.31,0,0,1-4.45,5.89l6.56-.45c-.64-1.09-1.31-2.18-2-3.17Zm-6.85,16.83a30.23,30.23,0,0,1-.26,4c1.79-.8,4.32-2.08,6.88-3.36V493H64.82Zm1.5-4a56.63,56.63,0,0,1,5.09,3.33l-1.28,1.31A52.43,52.43,0,0,0,65.08,496Zm13.89-1.41c-2.82,0-3.58-1-3.58-3.68V479.65H79v4.42h8.61v2.11H79v3.62c0,1.15.26,1.54,1.28,1.54h5.89a13.82,13.82,0,0,0,2.66-.19c.06.64.16,1.54.26,2.08a15.76,15.76,0,0,1-2.85.19ZM86,506.46c1.34,0,1.57-.61,1.73-4a7.23,7.23,0,0,0,2.11.9c-.29,4.16-1,5.25-3.65,5.25H80.53c-3.1,0-3.9-.74-3.9-3.36V494.46H79v3.81h9v2.14H79v4.8c0,1.06.29,1.25,1.79,1.25Z"/><path d="M70.49,514.11c-.86,2.72-2,6-3,8.61a11.09,11.09,0,0,1,2.66,7.14c0,1.76-.35,3.17-1.18,3.78a3,3,0,0,1-1.6.61,10.13,10.13,0,0,1-2,.06,5.36,5.36,0,0,0-.58-2.14,8,8,0,0,0,1.7.06,1.86,1.86,0,0,0,.9-.29,3.16,3.16,0,0,0,.61-2.3A10.32,10.32,0,0,0,65.46,523c.83-2.37,1.7-5.31,2.3-7.52h-3.9v25.73H61.75V513.31H68.6l.35-.1Zm7.2-1.57a44.64,44.64,0,0,1-2.56,6.53V541H73v-18a24.84,24.84,0,0,1-2.27,3.14,13.56,13.56,0,0,0-1.54-2A32.72,32.72,0,0,0,75.51,512Zm12,8.93H86.9v16.64c0,1.44-.35,2.11-1.22,2.53s-2.3.51-4.67.48a8.68,8.68,0,0,0-.77-2.33c1.73,0,3.23,0,3.68,0s.67-.19.67-.7V521.47H76.66v-2.21H84.6v-6.91h2.3v6.91h2.82Zm-9.09,11.3a72.17,72.17,0,0,0-3.26-7.3l1.79-.8a48.68,48.68,0,0,1,3.39,7.14Z"/><path d="M72.69,551.65H60.6v-2H72.69Zm15.2,7.23a20.39,20.39,0,0,1-5.7,9.22,22,22,0,0,0,7.55,3.2,10.16,10.16,0,0,0-1.47,2.14,22.55,22.55,0,0,1-7.94-3.81,25.52,25.52,0,0,1-7.94,3.9,8.62,8.62,0,0,0-1.09-2H64v1.5H61.94V562.3h9.44v9a23.23,23.23,0,0,0,7.14-3.23A21.88,21.88,0,0,1,73.75,561l1.38-.48H72.34V558.3H86l.42-.1Zm-16.51-5v1.89H62v-1.89ZM62,558h9.44v1.89H62Zm7.3,6.24H64v5.28h5.25Zm-2.82-14.94a29.82,29.82,0,0,0-2.4-4.29l1.86-.93a28,28,0,0,1,2.46,4.13Zm11.2-.35A9.2,9.2,0,0,1,73,557.5a11.41,11.41,0,0,0-1.54-1.73,7.17,7.17,0,0,0,4-6.85v-3.52h9.73v7.42c0,.9.06,1.18.51,1.18h1.89a6.8,6.8,0,0,0,1.41-.16c0,.61.13,1.5.16,2a5.23,5.23,0,0,1-1.57.16H85.49c-2.08,0-2.53-.9-2.53-3.3v-5.12H77.65Zm-1.82,11.55a17.78,17.78,0,0,0,4.51,6.11,17.3,17.3,0,0,0,4.51-6.11Z"/><path d="M64.6,584.51a31.08,31.08,0,0,1-2.78,2.59,7.05,7.05,0,0,0-1.7-1.54,26.73,26.73,0,0,0,7.42-9L70,577a34.3,34.3,0,0,1-1.82,3h7.1a24.22,24.22,0,0,0-1.44-2.88l2.18-.67A22.39,22.39,0,0,1,77.85,580h9.41v1.92H77v2.14h9v1.7H77v2.11h9.09v1.7H77v2.21H88.31v1.92H66.94v1H64.6Zm6.94,16.06a28.12,28.12,0,0,1-9.63,4.22A9,9,0,0,0,60.44,603c3.26-.61,7.23-1.86,9.28-3.3Zm17.66-4.42v2H76.09v7.68H73.75v-7.68H60.82v-2H73.75V594h2.34v2.18ZM74.68,581.92H66.94v2.14h7.74Zm0,3.84H66.94v2.11h7.74Zm0,3.81H66.94v2.21h7.74Zm4.61,9.92c3.1.93,7.36,2.37,9.6,3.33l-1.31,1.76c-2.14-1-6.43-2.53-9.6-3.58Z"/><path d="M66.33,614.56a36.42,36.42,0,0,1-4.06,2.4,17.58,17.58,0,0,0-1.76-1.66,27.13,27.13,0,0,0,9.38-6.56l2.18.83a25.61,25.61,0,0,1-3.42,3.26v6.5h-2.3Zm6.08,19.77a44.26,44.26,0,0,1-9.79,3.87,15.75,15.75,0,0,0-1.79-1.79,40.11,40.11,0,0,0,9.41-3Zm-7.55-14.14h20.7V633H64.86Zm2.3,3.78h16v-2.18h-16Zm0,3.71h16V625.5h-16Zm0,3.78h16v-2.24h-16Zm11.14-12.61c-2.88,0-3.62-1-3.62-3.46V609H77v2.59h10.3v2H77v1.92c0,1,.22,1.41,1.38,1.41h7.07a23.72,23.72,0,0,0,3.17-.19c.06.67.16,1.44.26,2a17.51,17.51,0,0,1-3.26.19Zm1.31,14.4A77.48,77.48,0,0,1,89,636.74l-2.08,1.38a63.86,63.86,0,0,0-8.9-3.55Z"/><path d="M70.52,660c-3.23,1.63-6.72,3.33-9.41,4.61l-.93-2.34c1.22-.51,2.72-1.15,4.35-1.89v-10H60.79v-2.24h3.74v-6.66h2.21v6.66H70.2v2.24H66.74v9L70,657.89Zm6-3.68a20,20,0,0,1-1.38,2.24H88.85a9.17,9.17,0,0,1-.1,1c-.48,6.59-1,9.09-1.89,10a2.59,2.59,0,0,1-1.79.8c-.7,0-1.89,0-3.17,0a4,4,0,0,0-.54-1.92c1.18.1,2.24.13,2.72.13s.74,0,1-.35c.54-.58,1-2.59,1.44-7.62H84c-1.28,3.81-3.78,7.93-6.53,10a7.28,7.28,0,0,0-1.7-1.38c2.59-1.73,4.93-5.18,6.24-8.64H78.9a24.17,24.17,0,0,1-7.78,8.64,6.28,6.28,0,0,0-1.57-1.47,21.11,21.11,0,0,0,7.2-7.17H73.53a22,22,0,0,1-4.16,3.65,10.4,10.4,0,0,0-1.63-1.47,18.12,18.12,0,0,0,6.34-6.4H69.59v-2h20v2Zm10.88-3.81H72.73V642.18H87.35ZM85.14,644H74.9v2.53H85.14Zm0,4.19H74.9v2.56H85.14Z"/><path d="M88.12,684.77a23.57,23.57,0,0,1-7,12,25,25,0,0,0,8.64,3.81,10.31,10.31,0,0,0-1.63,2.24,24.69,24.69,0,0,1-9-4.45A30,30,0,0,1,69,703a8.31,8.31,0,0,0-1.34-2.18,27.13,27.13,0,0,0,9.6-4.16,27,27,0,0,1-6.34-10.27H69.69A25.1,25.1,0,0,1,62,702.21a9.59,9.59,0,0,0-1.73-2c6.78-6.3,7.33-14.27,7.33-19.93v-2.88H62V675H81.62c-.64,2.94-1.47,6.53-2.18,9.12H86l.45-.13ZM70,680.26c0,1.22,0,2.53-.13,3.9h7c.58-2,1.22-4.48,1.73-6.78H70Zm3.17,6.14a22.38,22.38,0,0,0,6,8.77A20,20,0,0,0,85,686.4Z"/><path d="M66,720.13a26.15,26.15,0,0,0-5.6-3.71l1.31-1.7a28.89,28.89,0,0,1,5.7,3.49Zm2.14,4.19c-1.34,3.36-3.2,7.36-4.77,10.37l-2.11-1.44a114.05,114.05,0,0,0,5.15-10.3Zm-.86-12.58a24.55,24.55,0,0,0-5.38-3.9l1.41-1.6a24.1,24.1,0,0,1,5.44,3.68Zm19.65,20.8c.8,0,1-.67,1.06-4.8a6.24,6.24,0,0,0,2.08,1c-.22,4.7-.77,6-2.91,6H83.89c-2.37,0-3-.7-3-3.17V721.35H76.79c-.45,6.82-1.7,11.26-7.94,13.79a5.92,5.92,0,0,0-1.47-1.89c5.73-2.11,6.69-6,7-11.9H68.86v-2.27h9.31v-5.7H73.5A22.85,22.85,0,0,1,71,718.15,15.09,15.09,0,0,0,69,716.87c1.92-2.53,3.26-6.5,4-10.5l2.37.45a36.43,36.43,0,0,1-1.09,4.29h3.9v-5.22H80.5v5.22h7.87v2.27H80.5v5.7h9.12v2.27H83.25v10.14c0,.9.13,1.06.93,1.06Z"/><path d="M68.06,753.63a28.31,28.31,0,0,1-2.62,8c.64.35,1.41,1,2.69,1.76,2.27,1.38,5.15,1.6,8.93,1.6,4.13,0,9.31-.32,12.86-.67a8.29,8.29,0,0,0-.67,2.46c-2.4.16-8.48.35-12.25.35-4.19,0-7-.35-9.38-1.76-1.28-.77-2.43-1.86-3.17-1.86s-1.79,2-2.72,4l-1.63-2.14a17.73,17.73,0,0,1,2.56-3.07l-.06,0a20.33,20.33,0,0,0,3-7.1H61.4a66.78,66.78,0,0,0,2.78-7.13H60.6v-2.14h6.66c-.8,2.3-1.82,5-2.72,7.2H66.3l.38-.1Zm-3.62-9.25c-.48-1.41-1.34-3.68-2-5.38l2.11-.58c.7,1.66,1.63,3.84,2.11,5.22Zm24.8,14H68.38v-1.89h5.54V753.6H69.59v-1.86h4.32v-2.3h2.21v2.3H81.3v-2.3h2.21v2.3H88v1.86H83.51v2.94h5.73Zm-11.55-12.1c-.16.54-.35,1.31-.45,1.73-6.34,1.12-7.2,1.31-7.74,1.63a9.09,9.09,0,0,0-.83-1.89A1.84,1.84,0,0,0,69.5,746v-6.53H78v5.38H71.42v2.43Zm-.35,12.93a28.87,28.87,0,0,1-6.56,4.35A10,10,0,0,0,69,762.14a22.84,22.84,0,0,0,6.24-3.58Zm-5.92-18.21v2.14H76v-2.14Zm4.7,15.49H81.3V753.6H76.12Zm6.21-7.65c-2.18,0-2.72-.8-2.72-2.94v-6.46h8.7v5.38H81.59V746c0,.86.13,1.15.83,1.15h4.13a13,13,0,0,0,2-.13c0,.51.13,1.25.19,1.7a9.55,9.55,0,0,1-2.14.16Zm4.16,14.62a32.75,32.75,0,0,0-6.18-3.9l1.54-1.12a39.76,39.76,0,0,1,6.72,3.9Zm-4.9-22.43v2.14h4.64v-2.14Z"/><path d="M70.52,789.28c-3.23,1.63-6.72,3.33-9.41,4.61l-.93-2.34c1.22-.51,2.72-1.15,4.35-1.89v-10H60.79v-2.24h3.74v-6.66h2.21v6.66H70.2v2.24H66.74v9L70,787.17Zm6-3.68a20,20,0,0,1-1.38,2.24H88.85a9.17,9.17,0,0,1-.1,1c-.48,6.59-1,9.09-1.89,10a2.59,2.59,0,0,1-1.79.8c-.7,0-1.89,0-3.17,0a4,4,0,0,0-.54-1.92c1.18.1,2.24.13,2.72.13s.74,0,1-.35c.54-.58,1-2.59,1.44-7.62H84c-1.28,3.81-3.78,7.93-6.53,10a7.28,7.28,0,0,0-1.7-1.38c2.59-1.73,4.93-5.18,6.24-8.64H78.9a24.17,24.17,0,0,1-7.78,8.64A6.28,6.28,0,0,0,69.56,797a21.11,21.11,0,0,0,7.2-7.17H73.53a22,22,0,0,1-4.16,3.65A10.4,10.4,0,0,0,67.74,792a18.12,18.12,0,0,0,6.34-6.4H69.59v-2h20v2Zm10.88-3.81H72.73V771.46H87.35Zm-2.21-8.54H74.9v2.53H85.14Zm0,4.19H74.9V780H85.14Z"/><g id="散蛋洗選蛋"><rect class="cls-14" x="344.65" y="1176.32" width="110.65" height="49.46" rx="24.73" ry="24.73"/><path class="cls-15" d="M384.74,1198.35H369.22v-2h3.71v-3.78h-3.2v-2h3.2v-3.58h2.18v3.58h4.13v-3.58h2.21v3.58h3.23v2h-3.23v3.78h3.3Zm-1.86,15.1c0,1.15-.22,1.73-1,2a11.08,11.08,0,0,1-4,.38,7.74,7.74,0,0,0-.7-2c1.38,0,2.62,0,3,0s.51-.1.51-.48v-3.94l-6.37,2.62-.86-2c1.86-.54,4.51-1.47,7.23-2.4v-5.66h-7v4.29c0,3-.35,7-2.43,9.76a8.69,8.69,0,0,0-1.76-1.31c1.86-2.5,2-5.82,2-8.45v-6h11.36Zm-7.74-10.24a35.54,35.54,0,0,1,4.83,2.66l-1.09,1.54a38.29,38.29,0,0,0-4.77-2.85Zm0-6.91h4.13v-3.78h-4.13Zm21.28-1.5a39.19,39.19,0,0,1-3.68,13.05,15.47,15.47,0,0,0,6,6.08,7.27,7.27,0,0,0-1.6,2,16.31,16.31,0,0,1-5.66-5.86,20.27,20.27,0,0,1-6.21,5.89,8.76,8.76,0,0,0-1.34-1.92,17,17,0,0,0,6.34-6.18,43.25,43.25,0,0,1-3-9.41,23,23,0,0,1-2.11,4.16,16.51,16.51,0,0,0-1.6-1.86c2.27-3.39,3.65-8.7,4.45-14.08l2.24.35c-.29,1.89-.67,3.78-1.12,5.57h9.38v2.24Zm-4.9,10.69a38.07,38.07,0,0,0,2.69-10.69h-5.73A42.67,42.67,0,0,0,391.49,1205.49Z"/><path class="cls-15" d="M410.57,1191.5a18.87,18.87,0,0,1-.9,2.21,7.56,7.56,0,0,0,5.28,3.17v-6.75H403.53v-2h24l.42-.1,1.66.51a34.78,34.78,0,0,1-2.53,5.34l-2-.54a27.51,27.51,0,0,0,1.5-3.2h-9.28v2.56h7.58v1.76h-7.58v2.72c1.09.1,2.34.13,3.65.13s8.09,0,9.79-.06a7.56,7.56,0,0,0-.86,2.18h-8.93c-6,0-9.76-.64-12.16-4a18.4,18.4,0,0,1-6.27,6.37,10.87,10.87,0,0,0-1.15-2.27,14.86,14.86,0,0,0,7-8.58Zm12.51,17.57c2.56,1.76,5.79,4.19,7.49,5.66l-1.54,1.54c-.74-.67-1.73-1.5-2.78-2.34-8.58.38-17.7.8-23.68,1l-.19-2.27c3.23,0,7.71-.13,12.64-.26v-3.3h-9.89v-6.88H415v-2.08h2.3v2.08h9.92v6.88Zm-8.06-1.86V1204H407.4v3.2Zm2.3-3.2v3.2h7.55V1204Zm6.62,8.1c-.86-.61-1.76-1.28-2.53-1.82l1.44-1.22h-5.54v3.23Z"/><rect class="cls-14" x="628.21" y="1176.32" width="110.65" height="49.46" rx="24.73" ry="24.73"/><path class="cls-15" d="M642.19,1200.91a26.17,26.17,0,0,0-5.6-3.71l1.31-1.7a28.9,28.9,0,0,1,5.7,3.49Zm2.14,4.19c-1.34,3.36-3.2,7.36-4.77,10.37l-2.11-1.44a113.89,113.89,0,0,0,5.15-10.3Zm-.86-12.58a24.58,24.58,0,0,0-5.37-3.9l1.41-1.6a24.09,24.09,0,0,1,5.44,3.68Zm19.65,20.8c.8,0,1-.67,1.06-4.8a6.22,6.22,0,0,0,2.08,1c-.22,4.7-.77,6-2.91,6h-3.23c-2.37,0-3-.7-3-3.17v-10.18H653c-.45,6.82-1.7,11.26-7.93,13.79a6,6,0,0,0-1.47-1.89c5.73-2.11,6.69-6,7-11.9h-5.57v-2.27h9.31v-5.7h-4.67a22.9,22.9,0,0,1-2.46,4.77,15,15,0,0,0-2.08-1.28c1.92-2.53,3.26-6.5,4-10.5l2.37.45a36.46,36.46,0,0,1-1.09,4.29h3.9v-5.21h2.34v5.21h7.87v2.27h-7.87v5.7h9.12v2.27h-6.37v10.14c0,.9.13,1.06.93,1.06Z"/><path class="cls-15" d="M676.59,1202.09a28.34,28.34,0,0,1-2.62,8c.64.35,1.41,1,2.69,1.76,2.27,1.38,5.15,1.6,8.93,1.6,4.13,0,9.31-.32,12.86-.67a8.28,8.28,0,0,0-.67,2.46c-2.4.16-8.48.35-12.26.35-4.19,0-7-.35-9.37-1.76-1.28-.77-2.43-1.86-3.17-1.86s-1.79,2-2.72,4l-1.63-2.14a17.75,17.75,0,0,1,2.56-3.07l-.06,0a20.33,20.33,0,0,0,3-7.1h-4.16a66.83,66.83,0,0,0,2.78-7.14h-3.58v-2.14h6.66c-.8,2.3-1.82,5-2.72,7.2h1.76l.38-.1Zm-3.62-9.25c-.48-1.41-1.34-3.68-2-5.37l2.11-.58c.7,1.66,1.63,3.84,2.11,5.22Zm24.8,14H676.91V1205h5.54v-2.94h-4.32v-1.86h4.32v-2.3h2.21v2.3h5.18v-2.3H692v2.3h4.45v1.86H692V1205h5.73Zm-11.55-12.1c-.16.54-.35,1.31-.45,1.73-6.33,1.12-7.2,1.31-7.74,1.63a9.15,9.15,0,0,0-.83-1.89,1.84,1.84,0,0,0,.83-1.82v-6.53h8.54v5.38h-6.62v2.43Zm-.35,12.93a28.86,28.86,0,0,1-6.56,4.35,10,10,0,0,0-1.79-1.47,22.82,22.82,0,0,0,6.24-3.58Zm-5.92-18.21v2.14h4.58v-2.14Zm4.7,15.49h5.18v-2.94h-5.18Zm6.21-7.65c-2.18,0-2.72-.8-2.72-2.94V1188h8.7v5.38h-6.72v1.15c0,.86.13,1.15.83,1.15h4.13a13.11,13.11,0,0,0,2-.13c0,.51.13,1.25.19,1.7a9.56,9.56,0,0,1-2.14.16ZM695,1212a32.82,32.82,0,0,0-6.18-3.9l1.54-1.12a39.73,39.73,0,0,1,6.72,3.9Zm-4.9-22.43v2.14h4.64v-2.14Z"/><path class="cls-15" d="M710.28,1191.5a18.8,18.8,0,0,1-.9,2.21,7.56,7.56,0,0,0,5.28,3.17v-6.75H703.24v-2h24l.42-.1,1.66.51a34.8,34.8,0,0,1-2.53,5.34l-2-.54a27.53,27.53,0,0,0,1.5-3.2H717v2.56h7.58v1.76H717v2.72c1.09.1,2.34.13,3.65.13s8.09,0,9.79-.06a7.56,7.56,0,0,0-.86,2.18h-8.93c-6,0-9.76-.64-12.16-4a18.4,18.4,0,0,1-6.27,6.37,10.88,10.88,0,0,0-1.15-2.27,14.86,14.86,0,0,0,7-8.58Zm12.51,17.57c2.56,1.76,5.79,4.19,7.49,5.66l-1.54,1.54c-.74-.67-1.73-1.5-2.78-2.34-8.58.38-17.7.8-23.68,1l-.19-2.27c3.23,0,7.71-.13,12.64-.26v-3.29h-9.89v-6.88h9.89v-2.08H717v2.08H727v6.88Zm-8.06-1.86V1204h-7.62v3.2Zm2.3-3.2v3.2h7.55V1204Zm6.62,8.09c-.86-.61-1.76-1.28-2.53-1.82l1.44-1.22H717v3.23Z"/></g></svg>